<?xml version="1.0" encoding="UTF-8" standalone="no"?>
<!-- Created with Inkscape (http://www.inkscape.org/) -->

<svg
   version="1.1"
   id="svg1"
   width="647.33331"
   height="257.37332"
   viewBox="0 0 647.33331 257.37332"
   sodipodi:docname="UR MAIN LOGO on white.eps"
   xmlns:inkscape="http://www.inkscape.org/namespaces/inkscape"
   xmlns:sodipodi="http://sodipodi.sourceforge.net/DTD/sodipodi-0.dtd"
   xmlns="http://www.w3.org/2000/svg"
   xmlns:svg="http://www.w3.org/2000/svg">
  <defs
     id="defs1" />
  <sodipodi:namedview
     id="namedview1"
     pagecolor="#ffffff"
     bordercolor="#000000"
     borderopacity="0.25"
     inkscape:showpageshadow="2"
     inkscape:pageopacity="0.0"
     inkscape:pagecheckerboard="0"
     inkscape:deskcolor="#d1d1d1">
    <inkscape:page
       x="0"
       y="0"
       inkscape:label="1"
       id="page1"
       width="647.33331"
       height="257.37332"
       margin="0"
       bleed="0" />
  </sodipodi:namedview>
  <g
     id="g1"
     inkscape:groupmode="layer"
     inkscape:label="1">
    <g
       id="group-R5">
      <path
         id="path2"
         d="m 379.836,1929.43 h 189.41 v -453.99 c 0,-77.17 -12.023,-135.3 -37.078,-175.39 -49.105,-79.17 -132.289,-126.28 -244.535,-126.28 -62.137,0 -115.254,12.03 -158.348,37.08 C 42.0938,1261.96 0,1331.12 0,1474.43 v 455 h 189.414 v -451.99 c 0,-92.21 29.066,-137.3 96.211,-137.3 64.141,0 94.211,32.07 94.211,136.3 v 452.99"
         style="fill:#1c4563;fill-opacity:1;fill-rule:nonzero;stroke:none"
         transform="matrix(0.13333333,0,0,-0.13333333,0,257.37333)" />
      <path
         id="path3"
         d="m 727.641,1187.8 v 429.95 h -82.176 v 126.27 h 82.176 v 185.41 h 166.367 v -185.41 h 80.176 V 1617.75 H 894.008 V 1187.8 H 727.641"
         style="fill:#1c4563;fill-opacity:1;fill-rule:nonzero;stroke:none"
         transform="matrix(0.13333333,0,0,-0.13333333,0,257.37333)" />
      <path
         id="path4"
         d="m 1046.36,1187.8 v 556.22 h 166.36 V 1187.8 Z m 0,615.36 v 126.27 h 166.36 v -126.27 h -166.36"
         style="fill:#1c4563;fill-opacity:1;fill-rule:nonzero;stroke:none"
         transform="matrix(0.13333333,0,0,-0.13333333,0,257.37333)" />
      <path
         id="path5"
         d="m 1338.01,1187.8 v 741.63 h 166.37 V 1187.8 h -166.37"
         style="fill:#1c4563;fill-opacity:1;fill-rule:nonzero;stroke:none"
         transform="matrix(0.13333333,0,0,-0.13333333,0,257.37333)" />
      <path
         id="path6"
         d="m 1624.65,1187.8 v 556.22 h 166.37 V 1187.8 Z m 0,615.36 v 126.27 h 166.37 v -126.27 h -166.37"
         style="fill:#1c4563;fill-opacity:1;fill-rule:nonzero;stroke:none"
         transform="matrix(0.13333333,0,0,-0.13333333,0,257.37333)" />
      <path
         id="path7"
         d="m 1949.37,1187.8 v 429.95 h -82.18 v 126.27 h 82.18 v 185.41 h 166.37 v -185.41 h 80.17 v -126.27 h -80.17 V 1187.8 h -166.37"
         style="fill:#1c4563;fill-opacity:1;fill-rule:nonzero;stroke:none"
         transform="matrix(0.13333333,0,0,-0.13333333,0,257.37333)" />
      <path
         id="path8"
         d="m 2327.22,1002.39 88.19,213.48 -206.45,528.15 h 177.39 l 111.25,-322.7 h 2 l 106.23,322.7 h 176.39 L 2503.6,1002.39 h -176.38"
         style="fill:#1c4563;fill-opacity:1;fill-rule:nonzero;stroke:none"
         transform="matrix(0.13333333,0,0,-0.13333333,0,257.37333)" />
      <path
         id="path9"
         d="m 257.551,616.34 c 75.164,0 121.265,35.082 121.265,106.238 0,64.141 -48.101,100.223 -119.261,100.223 H 187.398 V 616.34 Z M 360.777,247.539 189.402,487.059 h -2.004 V 247.539 H 6 v 741.633 h 242.531 c 77.172,0 136.297,-10.027 175.387,-27.063 80.176,-36.089 136.297,-123.281 136.297,-228.507 0,-117.262 -70.156,-213.473 -184.402,-233.524 L 577.25,247.539 H 360.777"
         style="fill:#1c4563;fill-opacity:1;fill-rule:nonzero;stroke:none"
         transform="matrix(0.13333333,0,0,-0.13333333,0,257.37333)" />
      <path
         id="path10"
         d="m 1032.29,587.281 c -13.02,57.117 -63.134,95.207 -127.274,95.207 -60.133,0 -112.246,-36.078 -125.274,-95.207 z M 777.734,475.039 c 9.024,-63.141 62.137,-105.238 130.289,-105.238 45.098,0 74.165,17.039 101.217,52.121 h 170.38 C 1126.5,300.648 1025.28,229.5 908.023,229.5 c -160.351,0 -294.644,129.281 -294.644,294.648 0,160.352 128.281,298.653 291.637,298.653 166.364,0 293.644,-131.289 293.644,-303.672 0,-16.039 -1,-29.059 -4.01,-44.09 H 777.734"
         style="fill:#1c4563;fill-opacity:1;fill-rule:nonzero;stroke:none"
         transform="matrix(0.13333333,0,0,-0.13333333,0,257.37333)" />
      <path
         id="path11"
         d="m 1690.78,523.141 c 0,81.179 -55.13,143.308 -136.3,143.308 -74.16,0 -133.29,-62.129 -133.29,-138.301 0,-78.168 53.11,-143.308 133.29,-143.308 81.17,0 136.3,58.129 136.3,138.301 z m -1,-210.461 c -25.06,-53.121 -87.2,-83.18 -155.35,-83.18 -162.35,0 -279.61,125.27 -279.61,292.641 0,170.371 119.26,299.648 279.61,299.648 72.16,0 127.28,-27.059 154.34,-70.148 h 2.01 v 52.121 h 166.36 v -497.09 c 0,-75.172 -10.02,-132.301 -30.06,-170.371 C 1786.99,59.1289 1677.75,0 1538.44,0 1381.1,0 1278.88,89.1914 1264.84,195.422 h 192.43 c 19.04,-41.094 56.12,-55.121 97.21,-55.121 84.18,0 135.3,55.121 135.3,156.347 v 16.032"
         style="fill:#1c4563;fill-opacity:1;fill-rule:nonzero;stroke:none"
         transform="matrix(0.13333333,0,0,-0.13333333,0,257.37333)" />
      <path
         id="path12"
         d="m 2323.2,247.539 v 59.133 h -2 c -24.05,-51.121 -68.15,-77.172 -143.31,-77.172 -117.26,0 -214.47,70.16 -214.47,228.488 v 345.774 h 166.36 V 492.078 c 0,-73.168 26.06,-107.238 89.19,-107.238 63.14,0 95.21,42.09 95.21,110.238 v 308.684 h 166.37 V 247.539 H 2323.2"
         style="fill:#1c4563;fill-opacity:1;fill-rule:nonzero;stroke:none"
         transform="matrix(0.13333333,0,0,-0.13333333,0,257.37333)" />
      <path
         id="path13"
         d="m 2595.82,247.539 v 741.633 h 166.37 V 247.539 h -166.37"
         style="fill:#1c4563;fill-opacity:1;fill-rule:nonzero;stroke:none"
         transform="matrix(0.13333333,0,0,-0.13333333,0,257.37333)" />
      <path
         id="path14"
         d="m 3290.36,526.148 c 0,78.172 -63.13,141.313 -141.31,141.313 -76.16,0 -136.3,-63.141 -136.3,-143.313 0,-77.179 61.14,-140.32 138.3,-140.32 78.18,0 139.31,62.141 139.31,142.32 z m 0,-278.609 v 60.121 h -2 c -24.05,-49.101 -90.2,-79.172 -163.36,-79.172 -164.36,0 -278.61,129.293 -278.61,297.66 0,164.352 119.26,296.653 278.61,296.653 68.14,0 131.29,-27.063 163.36,-78.172 h 2 v 59.133 h 166.37 V 247.539 h -166.37"
         style="fill:#1c4563;fill-opacity:1;fill-rule:nonzero;stroke:none"
         transform="matrix(0.13333333,0,0,-0.13333333,0,257.37333)" />
      <path
         id="path15"
         d="M 3606.08,247.539 V 677.48 h -82.17 v 126.282 h 82.17 v 185.41 h 166.37 v -185.41 h 80.18 V 677.48 h -80.18 V 247.539 h -166.37"
         style="fill:#1c4563;fill-opacity:1;fill-rule:nonzero;stroke:none"
         transform="matrix(0.13333333,0,0,-0.13333333,0,257.37333)" />
      <path
         id="path16"
         d="m 4306.64,526.148 c 0,74.161 -56.12,140.301 -134.3,140.301 -73.15,0 -132.28,-64.14 -132.28,-140.301 0,-76.168 58.12,-140.308 133.29,-140.308 78.17,0 133.29,66.14 133.29,140.308 z m -133.29,-295.66 c -169.37,0 -299.66,125.282 -299.66,295.66 0,172.372 133.29,295.641 299.66,295.641 167.37,0 299.66,-125.269 299.66,-293.641 0,-174.378 -132.29,-297.66 -299.66,-297.66"
         style="fill:#1c4563;fill-opacity:1;fill-rule:nonzero;stroke:none"
         transform="matrix(0.13333333,0,0,-0.13333333,0,257.37333)" />
      <path
         id="path17"
         d="m 4556.22,247.539 v 556.223 h 156.34 v -59.133 h 2.01 c 29.06,59.133 75.16,78.172 139.3,78.172 V 655.43 c -99.21,-1 -131.28,-38.078 -131.28,-101.219 V 247.539 h -166.37"
         style="fill:#1c4563;fill-opacity:1;fill-rule:nonzero;stroke:none"
         transform="matrix(0.13333333,0,0,-0.13333333,0,257.37333)" />
      <path
         id="path18"
         d="m 4110.89,1604.39 h 418.9 v -416.81 h 325.18 v 742.76 h -744.08 v -325.95"
         style="fill:#40bb6a;fill-opacity:1;fill-rule:nonzero;stroke:none"
         transform="matrix(0.13333333,0,0,-0.13333333,0,257.37333)" />
    </g>
  </g>
</svg>
