<svg version="1.2" xmlns="http://www.w3.org/2000/svg" viewBox="0 0 456 104" width="456" height="104">
	<title>logo-svg</title>
	<style>
		.s0 { fill: #aa273d } 
		.s1 { fill: #00717b } 
		.s2 { fill: #ffffff } 
	</style>
	<g id="Layer">
		<g id="Layer">
			<path id="Layer" fill-rule="evenodd" class="s0" d="m164 35.4c0 2.1-0.3 3.8-1.1 5.4-0.7 1.5-1.7 2.8-2.9 3.8-1.2 1-2.7 1.8-4.4 2.3-1.7 0.5-3.6 0.8-5.6 0.8h-11l-0.6 0.6v15.1l-0.6 0.6h-7l-0.6-0.6v-39.6l0.6-0.6h19.2c2 0 3.9 0.3 5.6 0.8 1.7 0.5 3.2 1.3 4.4 2.3 1.2 1 2.2 2.3 2.9 3.8 0.8 1.5 1.1 3.3 1.1 5.3zm-8.1 0c0-2-0.5-3.4-1.6-4.1-1.1-0.7-2.5-1.1-4.2-1.1h-11.1l-0.6 0.6v9.3l0.6 0.6h11.1c0.8 0 1.6-0.1 2.4-0.2 0.7-0.2 1.3-0.4 1.9-0.8 0.5-0.4 0.9-1 1.2-1.6 0.1-0.9 0.3-1.7 0.3-2.7z"/>
			<path id="Layer" fill-rule="evenodd" class="s0" d="m201.9 52.8c0 2.1-0.3 3.8-1 5.2-0.7 1.4-1.5 2.5-2.6 3.4-1.1 0.9-2.4 1.5-3.8 1.9q-2.1 0.6-4.2 0.6h-19.8l-0.6-0.6v-39.6l0.6-0.6h18.6c1.4 0 2.9 0.2 4.3 0.6 1.4 0.4 2.7 1 3.8 1.8 1.1 0.8 2 1.9 2.6 3.2 0.7 1.3 1 2.9 1 4.8 0 2.1-0.5 3.9-1.4 5.5q-1.3 2.4-4.5 3.3v0.6c2.3 0.6 4.1 1.7 5.2 3.4 1.2 1.7 1.8 3.9 1.8 6.5zm-9.3-18c0-1.5-0.3-2.6-1-3.4q-1-1.2-3.6-1.2h-9.3l-0.6 0.6v8.2l0.6 0.6h9.3c1.7 0 3-0.5 3.6-1.5 0.6-1.1 1-2.1 1-3.3zm1.1 16.9c0-1.7-0.4-3.1-1.3-3.9-0.9-0.9-2.4-1.3-4.5-1.3h-9.3l-0.6 0.5v9.3l0.6 0.6h9.3c2.1 0 3.6-0.4 4.5-1.3 0.9-0.9 1.3-2.2 1.3-3.9z"/>
			<path id="Layer" class="s0" d="m209.5 23.1h8.2l1.2 0.6 15.7 26.8h0.6v-26.8l0.6-0.6h7l0.6 0.6v39.6l-0.6 0.6h-8.2l-1.2-0.6-15.7-26.8h-0.7v26.8l-0.6 0.6h-7l-0.6-0.6v-39.6z"/>
			<path id="Layer" class="s0" d="m260.1 63.9h-7l-0.6-0.6v-39.6l0.6-0.6h7l0.6 0.6v39.6z"/>
		</g>
		<g id="Layer">
			<path id="Layer" fill-rule="evenodd" class="s1" d="m285 27.7c0 1.4-0.4 2.4-1.1 3-0.7 0.6-1.9 0.9-3.5 0.9h-4.8l-0.2 0.2v6.3l-0.2 0.2h-0.8l-0.2-0.2v-14.2l0.2-0.2h6c1.6 0 2.7 0.3 3.5 0.9 0.8 0.7 1.1 1.7 1.1 3.1zm-1.2 0c0-0.6-0.1-1-0.2-1.4-0.1-0.4-0.4-0.7-0.6-0.9-0.3-0.2-0.6-0.4-1-0.5-0.4-0.1-0.8-0.1-1.3-0.1h-5l-0.2 0.2v5.4l0.2 0.2h4.8c0.5 0 1 0 1.4-0.1 0.4-0.1 0.8-0.2 1.1-0.5 0.3-0.2 0.5-0.5 0.7-0.9 0-0.4 0.1-0.8 0.1-1.4z"/>
			<path id="Layer" class="s1" d="m291.9 27.9l0.2 0.2v0.6l-0.2 0.2h-1c-1 0-1.8 0.3-2.2 1-0.5 0.7-0.7 1.5-0.7 2.6v5.6l-0.2 0.2h-0.8l-0.2-0.2v-10l0.2-0.2h0.6l0.2 0.2 0.2 1.3h0.2c0.3-0.5 0.7-0.9 1.2-1.1 0.5-0.2 1.1-0.3 1.7-0.3h0.8z"/>
			<path id="Layer" fill-rule="evenodd" class="s1" d="m297.3 38.5c-0.7 0-1.3-0.1-1.9-0.3-0.6-0.2-1.1-0.6-1.5-1-0.4-0.5-0.8-1-1-1.7-0.2-0.7-0.4-1.5-0.4-2.3 0-0.9 0.1-1.7 0.4-2.3 0.2-0.7 0.6-1.2 1-1.7 0.4-0.5 0.9-0.8 1.5-1 0.6-0.2 1.2-0.3 1.9-0.3 0.7 0 1.3 0.1 1.9 0.3 0.6 0.2 1.1 0.6 1.5 1 0.4 0.5 0.8 1 1 1.7 0.2 0.7 0.4 1.5 0.4 2.3 0 0.9-0.1 1.7-0.4 2.3-0.2 0.7-0.6 1.2-1 1.7-0.4 0.5-0.9 0.8-1.5 1-0.5 0.2-1.2 0.3-1.9 0.3zm0-9.8c-0.5 0-1 0.1-1.4 0.3-0.4 0.2-0.8 0.5-1.1 0.9-0.3 0.4-0.6 0.8-0.7 1.4-0.2 0.5-0.3 1.2-0.3 1.8q0 1 0.3 1.8c0.2 0.5 0.4 1 0.7 1.4 0.3 0.4 0.7 0.7 1.1 0.9 0.4 0.2 0.9 0.3 1.4 0.3 0.5 0 1-0.1 1.4-0.3 0.4-0.2 0.8-0.5 1.1-0.9 0.3-0.4 0.6-0.8 0.7-1.4 0.2-0.5 0.3-1.2 0.3-1.8q0-1.1-0.3-1.8c-0.2-0.5-0.4-1-0.7-1.4-0.3-0.4-0.7-0.7-1.1-0.9-0.4-0.2-0.8-0.3-1.4-0.3z"/>
			<path id="Layer" fill-rule="evenodd" class="s1" d="m308.8 27.7c0.7 0 1.4 0.1 1.9 0.4 0.5 0.3 1 0.6 1.4 1.1 0.4 0.5 0.6 1.1 0.8 1.7 0.2 0.7 0.3 1.4 0.3 2.2 0 0.8-0.1 1.5-0.3 2.2-0.2 0.7-0.5 1.2-0.8 1.7-0.4 0.5-0.8 0.9-1.4 1.1-0.5 0.3-1.2 0.4-1.9 0.4-0.9 0-1.7-0.2-2.2-0.5-0.5-0.3-0.9-0.7-1.1-1.1h-0.2l-0.2 1.2-0.2 0.2h-0.6l-0.2-0.2v-14.2l0.2-0.2h0.8l0.2 0.2v5.4h0.2c0.2-0.4 0.6-0.8 1.1-1.1 0.5-0.3 1.3-0.5 2.2-0.5zm-0.2 1c-1 0-1.9 0.4-2.5 1.1q-0.9 1.1-0.9 3.3 0 2.3 0.9 3.3c0.6 0.7 1.4 1.1 2.5 1.1 1 0 1.9-0.4 2.4-1.1q0.9-1 0.9-3.3 0-2.2-0.9-3.3c-0.5-0.7-1.3-1.1-2.4-1.1z"/>
			<path id="Layer" fill-rule="evenodd" class="s1" d="m322.6 38.3h-0.6l-0.2-0.2-0.2-1h-0.2c-0.1 0.2-0.2 0.3-0.4 0.5-0.2 0.2-0.4 0.3-0.6 0.5-0.3 0.1-0.6 0.3-0.9 0.4-0.4 0.1-0.8 0.1-1.3 0.1-1.2 0-2.1-0.3-2.6-0.8-0.6-0.6-0.9-1.3-0.9-2.3 0-1.1 0.4-2 1.2-2.5 0.8-0.5 1.8-0.8 3.2-0.8q0.5 0 0.9 0c0.3 0 0.6 0 0.8 0.1 0.1 0 0.3 0 0.4 0.1 0.1 0 0.3 0 0.4 0l0.2-0.2v-0.6q0-1.3-0.6-2.1c-0.4-0.4-1.1-0.7-2.1-0.7-0.5 0-1 0.1-1.3 0.2-0.3 0.1-0.6 0.3-0.8 0.5-0.2 0.2-0.4 0.4-0.4 0.7-0.1 0.3-0.1 0.5-0.1 0.8l-0.2 0.2h-0.8l-0.2-0.2c0-0.4 0.1-0.8 0.2-1.2 0.2-0.4 0.4-0.7 0.7-1 0.3-0.3 0.7-0.5 1.2-0.7 0.5-0.2 1.1-0.2 1.8-0.2 0.8 0 1.4 0.1 1.9 0.3 0.5 0.2 0.9 0.4 1.2 0.8q0.4 0.5 0.6 1.2c0.1 0.5 0.2 1 0.2 1.6v6.7zm-1.1-4.8l-0.2-0.2h-0.3c-0.1 0-0.2 0-0.4-0.1-0.2 0-0.5-0.1-0.7-0.1q-0.5 0-0.9 0c-1.2 0-2.1 0.2-2.6 0.6-0.5 0.4-0.7 1-0.7 1.7 0 0.6 0.2 1.1 0.5 1.5 0.4 0.4 1 0.6 2 0.6q0.9 0 1.5-0.3c0.4-0.2 0.8-0.4 1-0.7 0.3-0.3 0.5-0.6 0.6-1 0.1-0.4 0.2-0.7 0.2-1.1z"/>
			<path id="Layer" class="s1" d="m330.3 38.3h-1.5q-1.2 0-1.8-0.6c-0.5-0.4-0.7-1-0.7-1.7v-6.9l-0.2-0.2h-1.7l-0.2-0.2v-0.6l0.2-0.2h1.7l0.2-0.2v-1.9l0.2-0.2h0.8l0.2 0.2v1.9l0.2 0.2h2.5l0.2 0.2v0.6l-0.2 0.2h-2.5l-0.2 0.2v6.9c0 0.8 0.4 1.3 1.3 1.3h1.5l0.2 0.2v0.6z"/>
			<path id="Layer" class="s1" d="m333.6 26.2h-0.8l-0.2-0.2v-1.3l0.2-0.2h0.8l0.2 0.2v1.3zm0 12.1h-0.8l-0.2-0.2v-10l0.2-0.2h0.8l0.2 0.2v10z"/>
			<path id="Layer" fill-rule="evenodd" class="s1" d="m340.5 38.5c-0.7 0-1.3-0.1-1.9-0.3-0.6-0.2-1.1-0.6-1.5-1-0.4-0.5-0.8-1-1-1.7-0.2-0.7-0.4-1.5-0.4-2.3 0-0.9 0.1-1.7 0.4-2.3 0.2-0.7 0.6-1.2 1-1.7 0.4-0.5 0.9-0.8 1.5-1 0.6-0.2 1.2-0.3 1.9-0.3 0.7 0 1.3 0.1 1.9 0.3 0.6 0.2 1.1 0.6 1.5 1 0.4 0.5 0.8 1 1 1.7 0.2 0.7 0.4 1.5 0.4 2.3 0 0.9-0.1 1.7-0.4 2.3-0.2 0.7-0.6 1.2-1 1.7-0.4 0.5-0.9 0.8-1.5 1-0.6 0.2-1.2 0.3-1.9 0.3zm0-9.8c-0.5 0-1 0.1-1.4 0.3-0.4 0.2-0.8 0.5-1.1 0.9-0.3 0.4-0.6 0.8-0.7 1.4-0.2 0.5-0.3 1.2-0.3 1.8q0 1 0.3 1.8c0.2 0.5 0.4 1 0.7 1.4 0.3 0.4 0.7 0.7 1.1 0.9 0.4 0.2 0.9 0.3 1.4 0.3 0.5 0 1-0.1 1.4-0.3 0.4-0.2 0.8-0.5 1.1-0.9 0.3-0.4 0.6-0.8 0.7-1.4 0.2-0.5 0.3-1.2 0.3-1.8q0-1.1-0.3-1.8c-0.2-0.5-0.4-1-0.7-1.4-0.3-0.4-0.7-0.7-1.1-0.9-0.4-0.2-0.9-0.3-1.4-0.3z"/>
			<path id="Layer" class="s1" d="m355.5 38.3h-0.8l-0.2-0.2v-6.3c0-1-0.2-1.8-0.7-2.3-0.5-0.5-1.1-0.8-2-0.8-1.2 0-2 0.3-2.5 1-0.5 0.7-0.8 1.6-0.8 2.7v5.6l-0.2 0.2h-0.8l-0.2-0.2v-10l0.2-0.2h0.6l0.2 0.2 0.2 1.3h0.2c0.3-0.5 0.8-0.9 1.3-1.2 0.6-0.3 1.2-0.4 2-0.4 1.2 0 2.1 0.3 2.8 1.1 0.7 0.7 1 1.7 1 3.1v6.3z"/>
			<path id="Layer" fill-rule="evenodd" class="s1" d="m374.3 34.2c0 0.8-0.1 1.4-0.4 2-0.2 0.5-0.6 1-1 1.3-0.4 0.3-0.9 0.6-1.5 0.7-0.6 0.1-1.2 0.2-1.8 0.2h-5.6l-0.2-0.2v-14.2l0.2-0.2h5.4c0.6 0 1.2 0.1 1.7 0.2 0.5 0.1 1 0.3 1.4 0.6q0.6 0.5 0.9 1.2 0.3 0.8 0.3 1.8c0 1.5-0.6 2.5-1.9 3.1v0.2c0.6 0.2 1.2 0.6 1.6 1.1 0.7 0.5 0.9 1.2 0.9 2.2zm-1.7-6.7c0-0.9-0.2-1.6-0.7-2.1q-0.8-0.6-2.4-0.6h-4.2l-0.2 0.2v5l0.2 0.2h4.4c1 0 1.7-0.2 2.2-0.7 0.5-0.5 0.7-1.2 0.7-2zm0.4 6.7c0-1-0.3-1.7-0.9-2.2-0.6-0.5-1.4-0.7-2.4-0.7h-4.4l-0.2 0.2v5.6l0.2 0.2h4.4c1.2 0 2-0.3 2.5-0.9 0.6-0.5 0.8-1.3 0.8-2.2z"/>
			<path id="Layer" fill-rule="evenodd" class="s1" d="m380.5 38.5c-0.7 0-1.3-0.1-1.9-0.3-0.6-0.2-1.1-0.6-1.5-1-0.4-0.5-0.8-1-1-1.7-0.2-0.7-0.4-1.5-0.4-2.3 0-0.9 0.1-1.7 0.4-2.3 0.2-0.7 0.6-1.2 1-1.7 0.4-0.5 0.9-0.8 1.5-1 0.6-0.2 1.2-0.3 1.9-0.3 0.7 0 1.3 0.1 1.9 0.3 0.6 0.2 1.1 0.6 1.5 1 0.4 0.5 0.8 1 1 1.7 0.2 0.7 0.4 1.5 0.4 2.3 0 0.9-0.1 1.7-0.4 2.3-0.2 0.7-0.6 1.2-1 1.7-0.4 0.5-0.9 0.8-1.5 1-0.5 0.2-1.2 0.3-1.9 0.3zm0-9.8c-0.5 0-1 0.1-1.4 0.3-0.4 0.2-0.8 0.5-1.1 0.9-0.3 0.4-0.6 0.8-0.7 1.4-0.2 0.5-0.3 1.2-0.3 1.8q0 1 0.3 1.8c0.2 0.5 0.4 1 0.7 1.4 0.3 0.4 0.7 0.7 1.1 0.9 0.4 0.2 0.9 0.3 1.4 0.3 0.5 0 1-0.1 1.4-0.3 0.4-0.2 0.8-0.5 1.1-0.9 0.3-0.4 0.6-0.8 0.7-1.4 0.2-0.5 0.3-1.2 0.3-1.8q0-1.1-0.3-1.8c-0.2-0.5-0.4-1-0.7-1.4-0.3-0.4-0.7-0.7-1.1-0.9-0.4-0.2-0.8-0.3-1.4-0.3z"/>
			<path id="Layer" fill-rule="evenodd" class="s1" d="m394.7 38.3h-0.6l-0.2-0.2-0.2-1h-0.2c-0.1 0.2-0.2 0.3-0.4 0.5-0.2 0.2-0.4 0.3-0.6 0.5-0.3 0.1-0.6 0.3-0.9 0.4-0.4 0.1-0.8 0.1-1.3 0.1-1.2 0-2.1-0.3-2.7-0.8-0.6-0.6-0.9-1.3-0.9-2.3 0-1.1 0.4-2 1.2-2.5 0.8-0.5 1.8-0.8 3.2-0.8q0.4 0 0.9 0c0.3 0 0.6 0 0.8 0.1 0.1 0 0.3 0 0.4 0.1 0.1 0 0.3 0 0.4 0l0.2-0.2v-0.6q0-1.3-0.6-2.1c-0.4-0.4-1.1-0.7-2.1-0.7-0.5 0-1 0.1-1.3 0.2-0.3 0.1-0.6 0.3-0.8 0.5-0.2 0.2-0.4 0.4-0.4 0.7-0.1 0.3-0.1 0.5-0.1 0.8l-0.2 0.2h-0.8l-0.2-0.2c0-0.4 0.1-0.8 0.2-1.2 0.2-0.4 0.4-0.7 0.7-1 0.3-0.3 0.7-0.5 1.2-0.7 0.5-0.2 1.1-0.2 1.8-0.2 0.8 0 1.4 0.1 1.9 0.3 0.5 0.2 0.9 0.4 1.2 0.8q0.5 0.5 0.6 1.2c0.1 0.5 0.2 1 0.2 1.6v6.7zm-1-4.8l-0.2-0.2h-0.3c-0.1 0-0.2 0-0.4-0.1-0.2 0-0.5-0.1-0.7-0.1q-0.4 0-0.9 0c-1.2 0-2.1 0.2-2.6 0.6-0.5 0.4-0.7 1-0.7 1.7 0 0.6 0.2 1.1 0.5 1.5 0.4 0.4 1 0.6 2 0.6q0.9 0 1.5-0.3c0.4-0.2 0.8-0.4 1-0.7 0.3-0.3 0.5-0.6 0.6-1 0.1-0.4 0.2-0.7 0.2-1.1z"/>
			<path id="Layer" class="s1" d="m402.4 27.9l0.2 0.2v0.6l-0.2 0.2h-1c-1 0-1.8 0.3-2.2 1-0.5 0.7-0.7 1.5-0.7 2.6v5.6l-0.2 0.2h-0.8l-0.2-0.2v-10l0.2-0.2h0.6l0.2 0.2 0.2 1.3h0.2c0.3-0.5 0.7-0.9 1.2-1.1 0.5-0.2 1.1-0.3 1.7-0.3h0.8z"/>
			<path id="Layer" fill-rule="evenodd" class="s1" d="m407.4 27.7c0.9 0 1.7 0.2 2.2 0.5 0.5 0.3 0.9 0.7 1.1 1.1h0.2v-5.4l0.2-0.2h0.8l0.2 0.2v14.2l-0.2 0.2h-0.6l-0.2-0.2-0.2-1.2h-0.2c-0.2 0.4-0.6 0.8-1.1 1.1-0.5 0.3-1.3 0.5-2.2 0.5-0.7 0-1.4-0.1-1.9-0.4-0.5-0.3-1-0.6-1.4-1.1-0.4-0.5-0.6-1.1-0.8-1.7-0.2-0.7-0.3-1.4-0.3-2.2 0-0.8 0.1-1.5 0.3-2.2 0.2-0.7 0.5-1.2 0.8-1.7 0.4-0.5 0.8-0.9 1.4-1.1 0.6-0.3 1.2-0.4 1.9-0.4zm0.3 1c-1 0-1.9 0.4-2.4 1.1q-0.9 1.1-0.9 3.3 0 2.3 0.9 3.3c0.6 0.7 1.4 1.1 2.4 1.1 1 0 1.9-0.4 2.5-1.1q0.9-1 0.9-3.3 0-2.2-0.9-3.3c-0.7-0.7-1.5-1.1-2.5-1.1z"/>
			<path id="Layer" class="s1" d="m279.4 49.8v0.6l-0.2 0.2h-1.5c-0.8 0-1.2 0.4-1.2 1.3v0.8l0.2 0.2h2.3l0.2 0.2v0.6l-0.2 0.3h-2.3l-0.2 0.2v9l-0.2 0.2h-0.8l-0.2-0.2v-9l-0.3-0.2h-1.7l-0.2-0.2v-0.6l0.2-0.2h1.7l0.2-0.2v-0.8c0-0.8 0.2-1.3 0.7-1.7q0.8-0.6 1.8-0.6h1.5z"/>
			<path id="Layer" fill-rule="evenodd" class="s1" d="m284.8 63.6c-0.7 0-1.3-0.1-1.9-0.3-0.6-0.2-1.1-0.6-1.5-1-0.4-0.5-0.8-1-1-1.7-0.2-0.7-0.4-1.5-0.4-2.3 0-0.9 0.1-1.7 0.4-2.3 0.2-0.7 0.6-1.2 1-1.7 0.4-0.5 0.9-0.8 1.5-1 0.6-0.2 1.2-0.3 1.9-0.3 0.7 0 1.3 0.1 1.9 0.3 0.6 0.2 1.1 0.6 1.5 1 0.4 0.5 0.8 1 1 1.7 0.2 0.7 0.4 1.5 0.4 2.3 0 0.9-0.1 1.7-0.4 2.3-0.2 0.7-0.6 1.2-1 1.7-0.4 0.5-0.9 0.8-1.5 1-0.5 0.1-1.2 0.3-1.9 0.3zm0-9.8c-0.5 0-1 0.1-1.4 0.3-0.4 0.2-0.8 0.5-1.1 0.9-0.3 0.4-0.6 0.8-0.7 1.4-0.2 0.5-0.3 1.2-0.3 1.8q0 1 0.3 1.8c0.2 0.5 0.4 1 0.7 1.4 0.3 0.4 0.7 0.7 1.1 0.9 0.4 0.2 0.9 0.3 1.4 0.3 0.5 0 1-0.1 1.4-0.3 0.4-0.2 0.8-0.5 1.1-0.9 0.3-0.4 0.6-0.8 0.7-1.4 0.2-0.5 0.3-1.2 0.3-1.8q0-1.1-0.3-1.8c-0.2-0.5-0.4-1-0.7-1.4-0.3-0.4-0.7-0.7-1.1-0.9-0.4-0.2-0.8-0.3-1.4-0.3z"/>
			<path id="Layer" class="s1" d="m296.7 52.9l0.2 0.2v0.6l-0.2 0.2h-1c-1 0-1.8 0.3-2.2 1-0.5 0.7-0.7 1.5-0.7 2.6v5.6l-0.2 0.2h-0.8l-0.2-0.2v-10l0.2-0.2h0.6l0.2 0.2 0.2 1.3h0.2c0.3-0.5 0.7-0.9 1.2-1.1 0.5-0.2 1.1-0.3 1.7-0.3h0.8z"/>
			<path id="Layer" class="s1" d="m315.7 63.3h-1l-0.4-0.2-8.3-12.3h-0.2v12.3l-0.2 0.2h-0.8l-0.2-0.2v-14.1l0.2-0.2h1l0.4 0.2 8.3 12.3h0.2v-12.3l0.2-0.2h0.8l0.2 0.2v14.2z"/>
			<path id="Layer" fill-rule="evenodd" class="s1" d="m323 63.6c-0.7 0-1.3-0.1-1.9-0.3-0.6-0.2-1.1-0.6-1.5-1-0.4-0.5-0.8-1-1-1.7-0.2-0.7-0.4-1.5-0.4-2.3 0-0.9 0.1-1.7 0.4-2.3 0.2-0.7 0.6-1.2 1-1.7 0.4-0.5 0.9-0.8 1.5-1 0.6-0.2 1.2-0.3 1.9-0.3 0.7 0 1.3 0.1 1.9 0.3 0.6 0.2 1.1 0.6 1.5 1 0.4 0.5 0.8 1 1 1.7 0.2 0.7 0.4 1.5 0.4 2.3 0 0.9-0.1 1.7-0.4 2.3-0.2 0.7-0.6 1.2-1 1.7-0.4 0.5-0.9 0.8-1.5 1-0.6 0.1-1.2 0.3-1.9 0.3zm0-9.8c-0.5 0-1 0.1-1.4 0.3-0.4 0.2-0.8 0.5-1.1 0.9-0.3 0.4-0.6 0.8-0.7 1.4-0.2 0.5-0.3 1.2-0.3 1.8q0 1 0.3 1.8c0.2 0.5 0.4 1 0.7 1.4 0.3 0.4 0.7 0.7 1.1 0.9 0.4 0.2 0.9 0.3 1.4 0.3 0.5 0 1-0.1 1.4-0.3 0.4-0.2 0.8-0.5 1.1-0.9 0.3-0.4 0.6-0.8 0.7-1.4 0.2-0.5 0.3-1.2 0.3-1.8q0-1.1-0.3-1.8c-0.2-0.5-0.4-1-0.7-1.4-0.3-0.4-0.7-0.7-1.1-0.9-0.4-0.2-0.9-0.3-1.4-0.3z"/>
			<path id="Layer" class="s1" d="m334.9 52.9l0.2 0.2v0.6l-0.2 0.2h-1c-1 0-1.8 0.3-2.2 1-0.5 0.7-0.7 1.5-0.7 2.6v5.6l-0.2 0.2h-0.8l-0.2-0.2v-10l0.2-0.2h0.6l0.2 0.2 0.2 1.3h0.2c0.3-0.5 0.7-0.9 1.2-1.1 0.5-0.2 1.1-0.3 1.7-0.3h0.8z"/>
			<path id="Layer" class="s1" d="m342 63.3h-1.5q-1.2 0-1.8-0.6c-0.5-0.4-0.7-1-0.7-1.7v-6.9l-0.2-0.2h-1.7l-0.2-0.2v-0.6l0.2-0.2h1.7l0.2-0.2v-1.9l0.2-0.2h0.8l0.2 0.2v1.9l0.2 0.2h2.5l0.2 0.2v0.6l-0.1 0.3h-2.5l-0.2 0.2v6.9c0 0.8 0.4 1.2 1.3 1.2h1.5l0.2 0.2v0.6z"/>
			<path id="Layer" class="s1" d="m352.6 63.3h-0.8l-0.2-0.2v-6.3c0-1-0.2-1.8-0.7-2.3-0.5-0.5-1.1-0.8-2-0.8-1.2 0-2 0.3-2.5 1-0.5 0.7-0.8 1.6-0.8 2.7v5.6l-0.2 0.2h-0.8l-0.2-0.2v-14l0.2-0.2h0.8l0.2 0.2v5.4h0.2c0.3-0.5 0.8-0.9 1.3-1.2 0.6-0.3 1.2-0.4 2-0.4 1.2 0 2.1 0.4 2.8 1.1 0.7 0.7 1 1.7 1 3.1v6.3z"/>
			<path id="Layer" fill-rule="evenodd" class="s1" d="m356.1 58.5l-0.2 0.2c0 0.3 0.1 0.7 0.2 1.1q0.1 0.6 0.6 1.2c0.3 0.4 0.6 0.7 1.1 1 0.5 0.3 1 0.4 1.7 0.4 0.8 0 1.5-0.2 1.9-0.6 0.5-0.4 0.8-0.9 1-1.5l0.2-0.2h0.8l0.2 0.2c-0.1 0.3-0.2 0.7-0.3 1-0.2 0.4-0.4 0.7-0.7 1-0.3 0.3-0.7 0.6-1.3 0.8q-0.7 0.3-1.8 0.3c-0.8 0-1.6-0.1-2.2-0.4q-0.9-0.5-1.5-1.2c-0.4-0.5-0.7-1.1-0.9-1.7-0.2-0.7-0.3-1.3-0.3-2.1v-0.4c0-0.7 0.1-1.4 0.3-2 0.2-0.6 0.5-1.1 0.9-1.6 0.4-0.4 0.9-0.8 1.4-1 0.6-0.3 1.2-0.4 2-0.4 0.7 0 1.4 0.1 1.9 0.4 0.6 0.3 1.1 0.6 1.5 1 0.4 0.4 0.7 1 0.9 1.6 0.2 0.6 0.3 1.3 0.3 2v0.6l-0.2 0.2h-7.5zm6.5-1.2c0-0.4-0.1-0.7-0.2-1.2q-0.2-0.6-0.6-1.2c-0.3-0.4-0.6-0.6-1-0.9-0.4-0.2-0.9-0.3-1.6-0.3-0.6 0-1.2 0.1-1.6 0.3-0.4 0.2-0.8 0.5-1 0.9-0.3 0.4-0.5 0.7-0.6 1.2-0.1 0.4-0.2 0.8-0.2 1.2l0.2 0.2h6.3z"/>
			<path id="Layer" class="s1" d="m371 52.9l0.2 0.2v0.6l-0.2 0.3h-1c-1 0-1.8 0.3-2.2 1-0.5 0.7-0.7 1.5-0.7 2.6v5.6l-0.2 0.2h-0.9l-0.2-0.2v-10l0.2-0.2h0.6l0.2 0.2 0.2 1.3h0.2c0.3-0.5 0.7-0.9 1.2-1.1 0.5-0.2 1.1-0.3 1.7-0.3h0.9z"/>
			<path id="Layer" class="s1" d="m381.2 63.3h-0.8l-0.2-0.2v-6.3c0-1-0.2-1.8-0.7-2.3-0.5-0.5-1.1-0.8-2-0.8-1.2 0-2 0.3-2.5 1-0.5 0.7-0.8 1.6-0.8 2.7v5.6l-0.2 0.2h-1l-0.2-0.2v-10l0.2-0.2h0.6l0.2 0.2 0.2 1.3h0.2c0.3-0.5 0.8-0.9 1.3-1.2 0.6-0.3 1.2-0.4 2-0.4 1.2 0 2.1 0.4 2.8 1.1 0.7 0.7 1 1.7 1 3.1v6.3z"/>
			<path id="Layer" class="s1" d="m390.6 63.3h-0.8l-0.2-0.2v-14.1l0.2-0.2h0.8l0.2 0.2v14.2z"/>
			<path id="Layer" class="s1" d="m398.9 52.9l0.2 0.2v0.6l-0.2 0.2h-1c-1 0-1.8 0.3-2.2 1-0.5 0.7-0.7 1.5-0.7 2.6v5.6l-0.2 0.2h-0.8l-0.2-0.2v-10l0.2-0.2h0.6l0.2 0.2 0.2 1.3h0.2c0.3-0.5 0.7-0.9 1.2-1.1 0.5-0.2 1.1-0.3 1.7-0.3h0.8z"/>
			<path id="Layer" fill-rule="evenodd" class="s1" d="m401 58.5l-0.2 0.2c0 0.3 0.1 0.7 0.2 1.1q0.1 0.6 0.6 1.2c0.3 0.4 0.6 0.7 1.1 1 0.5 0.3 1 0.4 1.7 0.4 0.8 0 1.5-0.2 1.9-0.6 0.5-0.4 0.8-0.9 1-1.5l0.2-0.2h0.8l0.2 0.2c-0.1 0.3-0.2 0.7-0.3 1-0.2 0.4-0.4 0.7-0.7 1-0.3 0.3-0.7 0.6-1.2 0.8q-0.7 0.3-1.8 0.3c-0.8 0-1.6-0.1-2.2-0.4q-0.9-0.5-1.5-1.2c-0.4-0.5-0.7-1.1-0.9-1.7-0.2-0.7-0.3-1.3-0.3-2.1v-0.4c0-0.7 0.1-1.4 0.3-2 0.2-0.6 0.5-1.1 0.9-1.6 0.4-0.4 0.9-0.8 1.4-1 0.6-0.3 1.2-0.4 2-0.4 0.7 0 1.4 0.1 1.9 0.4 0.6 0.3 1.1 0.6 1.5 1 0.4 0.4 0.7 1 0.9 1.6 0.2 0.6 0.3 1.3 0.3 2v0.6l-0.2 0.2h-7.6zm6.4-1.2c0-0.4-0.1-0.7-0.2-1.2q-0.2-0.6-0.6-1.2c-0.3-0.4-0.6-0.6-1-0.9-0.4-0.2-0.9-0.3-1.6-0.3-0.6 0-1.2 0.1-1.6 0.3-0.4 0.2-0.8 0.5-1 0.9-0.3 0.4-0.5 0.7-0.6 1.2-0.1 0.4-0.2 0.8-0.2 1.2l0.2 0.2h6.3z"/>
			<path id="Layer" class="s1" d="m411.6 63.3h-0.8l-0.2-0.2v-14.1l0.2-0.2h0.8l0.2 0.2v14.2z"/>
			<path id="Layer" fill-rule="evenodd" class="s1" d="m421.2 63.3l-0.2-0.2-0.2-1h-0.2c-0.1 0.2-0.3 0.3-0.4 0.5-0.2 0.2-0.4 0.3-0.6 0.5-0.3 0.1-0.6 0.3-0.9 0.4-0.4 0.1-0.8 0.1-1.3 0.1-1.2 0-2-0.3-2.6-0.8-0.6-0.6-0.9-1.3-0.9-2.3 0-1.2 0.4-2 1.2-2.5 0.8-0.5 1.8-0.8 3.2-0.8q0.4 0 0.9 0c0.3 0 0.6 0 0.8 0.1 0.1 0 0.3 0 0.4 0.1 0.1 0 0.3 0 0.4 0l0.2-0.2v-0.6q0-1.3-0.6-2.1c-0.4-0.4-1.1-0.7-2.1-0.7-0.5 0-1 0.1-1.3 0.2-0.4 0.1-0.6 0.3-0.8 0.5-0.2 0.2-0.4 0.4-0.4 0.7-0.1 0.3-0.1 0.5-0.1 0.8l-0.2 0.2h-0.8l-0.2-0.2c0-0.4 0.1-0.8 0.2-1.2 0.2-0.4 0.4-0.7 0.7-1 0.3-0.3 0.7-0.5 1.2-0.7q0.8-0.3 1.8-0.3c0.8 0 1.4 0.1 1.9 0.3 0.5 0.2 0.9 0.4 1.2 0.8q0.4 0.5 0.6 1.2c0.1 0.5 0.2 1 0.2 1.5v6.7zm-0.4-4.8l-0.2-0.2h-0.3c-0.1 0-0.2 0-0.4-0.1-0.2 0-0.4-0.1-0.7-0.1q-0.4 0-0.9 0c-1.3 0-2.1 0.2-2.6 0.6-0.5 0.4-0.7 1-0.7 1.7 0 0.6 0.2 1.1 0.5 1.5 0.4 0.4 1 0.6 2 0.6q0.9 0 1.5-0.3c0.4-0.2 0.8-0.4 1-0.7 0.3-0.3 0.5-0.6 0.6-1 0.1-0.4 0.2-0.7 0.2-1.1z"/>
			<path id="Layer" class="s1" d="m432.7 63.3h-0.8l-0.2-0.2v-6.3c0-1-0.2-1.8-0.7-2.3-0.5-0.5-1.1-0.8-2-0.8-1.2 0-2 0.3-2.5 1-0.5 0.7-0.8 1.6-0.8 2.7v5.6l-0.2 0.2h-0.8l-0.2-0.2v-10l0.2-0.2h0.6l0.2 0.2 0.2 1.3h0.2c0.3-0.5 0.8-0.9 1.3-1.2 0.6-0.3 1.2-0.4 2-0.4 1.2 0 2.1 0.4 2.7 1.1 0.7 0.7 1 1.7 1 3.1v6.3z"/>
			<path id="Layer" fill-rule="evenodd" class="s1" d="m438.9 52.7c0.9 0 1.7 0.2 2.2 0.5 0.5 0.4 0.9 0.7 1.1 1.2h0.2v-5.4l0.2-0.2h0.8l0.2 0.2v14.2l-0.2 0.2h-0.6l-0.2-0.2-0.2-1.3h-0.2c-0.2 0.4-0.6 0.8-1.1 1.1-0.5 0.3-1.3 0.5-2.2 0.5-0.7 0-1.4-0.1-1.9-0.4-0.5-0.3-1-0.6-1.4-1.1-0.4-0.5-0.6-1.1-0.8-1.7-0.2-0.7-0.3-1.4-0.3-2.2 0-0.8 0.1-1.5 0.3-2.2 0.2-0.7 0.5-1.2 0.8-1.7 0.4-0.5 0.8-0.9 1.4-1.1 0.6-0.2 1.2-0.4 1.9-0.4zm0.2 1.1c-1 0-1.9 0.4-2.4 1.1q-0.9 1.1-0.9 3.3 0 2.3 0.9 3.3c0.6 0.7 1.4 1.1 2.4 1.1 1 0 1.9-0.4 2.5-1.1q0.9-1 0.9-3.3 0-2.2-0.9-3.3c-0.6-0.8-1.4-1.1-2.5-1.1z"/>
		</g>
		<g id="Layer">
			<path id="Layer" class="s2" d="m66.6 15.1c25.2 0 48.1 11.2 48.1 27.2 0 16-22.9 27.2-48.1 27.2-25.2 0-48.1-11.2-48.1-27.2 0-16.1 22.9-27.2 48.1-27.2z"/>
			<path id="Layer" class="s0" d="m20.7 42.2c0-8.5 7.9-16.1 19.9-20.6-0.8 1.2-1 2.7-0.5 4.2 1.4 3.7 6.9 6.9 13.4 8h-18.2c0 0 0.7 10.3 10.4 20.2 7.4 7.5 17.5 11.7 21.8 13.2h-0.9c-25.3 0-45.9-11.2-45.9-25z"/>
			<path id="Layer" class="s1" d="m57.4 17.7c3-0.3 6.1-0.5 9.2-0.5 25.4 0 45.9 11.2 45.9 25 0 13.4-19.4 24.3-43.7 25-2.5-2.3-9.5-9.5-7.6-17.7 2.4-9.8 18.1-15.6 18.1-15.6h-16.1c5.7-1.1 8.9-4.3 7.6-8-1.3-3.9-6.9-7-13.4-8.2z"/>
		</g>
	</g>
	<g id="Layer">
		<path id="Layer" class="s0" d="m140.6 76c-0.3-0.4-0.6-0.8-1-1q-0.6-0.5-1.2-0.6c-0.5-0.1-0.9-0.2-1.4-0.2-0.9 0-1.7 0.2-2.3 0.5-0.6 0.3-1.2 0.8-1.6 1.4-0.4 0.6-0.7 1.2-0.9 1.9-0.2 0.7-0.3 1.4-0.3 2.2 0 0.7 0.1 1.5 0.3 2.2 0.2 0.7 0.5 1.4 0.9 1.9 0.4 0.6 0.9 1 1.6 1.4 0.6 0.3 1.4 0.5 2.3 0.5 0.6 0 1.2-0.1 1.7-0.3 0.5-0.2 0.9-0.5 1.3-0.9 0.4-0.4 0.7-0.9 0.9-1.4 0.2-0.5 0.4-1.1 0.4-1.7h1.3c-0.1 0.8-0.3 1.6-0.6 2.3-0.3 0.7-0.7 1.2-1.2 1.7-0.5 0.5-1.1 0.8-1.7 1.1-0.7 0.3-1.4 0.4-2.2 0.4-1.1 0-2-0.2-2.8-0.6-0.8-0.4-1.5-0.9-2-1.6-0.5-0.6-0.9-1.4-1.2-2.3-0.3-0.9-0.4-1.7-0.4-2.7 0-0.9 0.1-1.8 0.4-2.7 0.3-0.9 0.7-1.6 1.2-2.3 0.5-0.7 1.2-1.2 2-1.6 0.8-0.4 1.7-0.6 2.8-0.6 0.6 0 1.3 0.1 1.9 0.3 0.6 0.2 1.2 0.5 1.7 0.8 0.5 0.4 0.9 0.8 1.3 1.4 0.3 0.5 0.5 1.2 0.6 1.9h-1.3c0-0.5-0.2-1-0.5-1.4z"/>
		<path id="Layer" class="s0" d="m145.6 73.3v5.5c0.2-0.6 0.6-1.1 1.2-1.4 0.6-0.4 1.2-0.5 1.9-0.5 0.7 0 1.3 0.1 1.7 0.3 0.5 0.2 0.8 0.4 1.1 0.8q0.4 0.5 0.6 1.2c0.1 0.5 0.2 1 0.2 1.6v6.3h-1.2v-6.1c0-0.4 0-0.8-0.1-1.2-0.1-0.4-0.2-0.7-0.4-0.9-0.2-0.3-0.4-0.5-0.8-0.6-0.3-0.2-0.7-0.2-1.2-0.2-0.5 0-0.9 0.1-1.3 0.3-0.4 0.2-0.7 0.4-1 0.7-0.3 0.3-0.5 0.7-0.6 1.1-0.1 0.4-0.2 0.9-0.2 1.3v5.7h-1.2v-13.6h1.3z"/>
		<path id="Layer" fill-rule="evenodd" class="s0" d="m154.9 78.6c0.2-0.4 0.5-0.8 0.8-1q0.6-0.4 1.2-0.6c0.5-0.1 1-0.2 1.6-0.2 0.4 0 0.9 0 1.3 0.1 0.4 0.1 0.8 0.2 1.2 0.5 0.3 0.2 0.6 0.6 0.8 1 0.2 0.4 0.3 1 0.3 1.6v5.2c0 0.5 0.2 0.7 0.7 0.7 0.1 0 0.3 0 0.4-0.1v1c-0.1 0-0.3 0-0.4 0.1-0.1 0-0.2 0-0.4 0-0.3 0-0.6 0-0.7-0.1-0.2-0.1-0.3-0.2-0.4-0.4-0.1-0.2-0.2-0.3-0.2-0.5 0-0.2 0-0.4 0-0.7-0.2 0.3-0.4 0.6-0.7 0.8-0.2 0.2-0.5 0.5-0.7 0.6-0.3 0.2-0.6 0.3-0.9 0.4-0.4 0.1-0.8 0.1-1.2 0.1-0.5 0-0.9-0.1-1.3-0.2-0.4-0.1-0.8-0.3-1-0.5-0.3-0.2-0.5-0.5-0.7-0.9-0.2-0.4-0.3-0.8-0.3-1.3 0-0.7 0.2-1.2 0.5-1.6q0.5-0.6 1.2-0.9c0.5-0.2 1.1-0.3 1.7-0.4 0.6-0.1 1.3-0.2 1.9-0.2 0.3 0 0.5-0.1 0.7-0.1 0.2 0 0.4-0.1 0.5-0.2 0.1-0.1 0.2-0.2 0.3-0.4 0.1-0.2 0.1-0.4 0.1-0.6 0-0.4-0.1-0.7-0.2-1q-0.1-0.4-0.6-0.6c-0.2-0.2-0.5-0.3-0.8-0.3-0.3-0.1-0.6-0.1-1-0.1-0.8 0-1.4 0.2-1.9 0.5-0.5 0.4-0.7 0.9-0.8 1.7h-1.2c-0.1-0.5 0-1 0.2-1.4zm6.1 2.9c-0.1 0.1-0.2 0.2-0.4 0.3-0.2 0.1-0.4 0.1-0.6 0.1-0.5 0.1-1 0.2-1.6 0.2q-0.8 0.2-1.5 0.3c-0.4 0.1-0.8 0.3-1.1 0.6-0.3 0.3-0.4 0.6-0.4 1.1 0 0.3 0.1 0.6 0.2 0.8 0.1 0.2 0.3 0.4 0.5 0.6 0.2 0.2 0.4 0.3 0.7 0.4 0.3 0.1 0.5 0.1 0.8 0.1 0.5 0 0.9-0.1 1.3-0.2 0.4-0.1 0.8-0.3 1.1-0.6 0.3-0.3 0.6-0.6 0.7-1 0.2-0.4 0.3-0.8 0.3-1.3z"/>
		<path id="Layer" class="s0" d="m165.8 77v1.7c0.2-0.6 0.6-1.1 1.2-1.4 0.6-0.4 1.2-0.5 1.9-0.5 0.7 0 1.3 0.1 1.7 0.3 0.5 0.2 0.8 0.4 1.1 0.8q0.4 0.5 0.6 1.2c0.1 0.5 0.2 1 0.2 1.6v6.3h-1.2v-6.1c0-0.4 0-0.8-0.1-1.2-0.1-0.4-0.2-0.7-0.4-0.9-0.2-0.3-0.4-0.5-0.8-0.6-0.3-0.2-0.7-0.2-1.2-0.2-0.5 0-0.9 0.1-1.3 0.3-0.4 0.2-0.7 0.4-1 0.7-0.3 0.3-0.5 0.7-0.6 1.1-0.1 0.4-0.2 0.9-0.2 1.3v5.7h-1.2v-10.1z"/>
		<path id="Layer" fill-rule="evenodd" class="s0" d="m182.9 88c-0.2 0.6-0.4 1.1-0.8 1.5-0.3 0.4-0.8 0.7-1.3 0.9-0.6 0.2-1.2 0.3-2 0.3-0.5 0-1-0.1-1.4-0.2-0.5-0.1-0.9-0.3-1.3-0.5-0.4-0.2-0.7-0.6-0.9-0.9-0.2-0.4-0.4-0.8-0.4-1.3h1.2c0.1 0.4 0.2 0.7 0.4 0.9 0.2 0.2 0.4 0.4 0.7 0.6q0.4 0.3 0.9 0.3c0.3 0.1 0.6 0.1 1 0.1 1.1 0 1.9-0.3 2.4-1 0.5-0.6 0.7-1.6 0.7-2.7v-1.3q-0.5 0.9-1.2 1.5c-0.5 0.4-1.2 0.6-1.9 0.6-0.8 0-1.5-0.1-2-0.4-0.6-0.3-1-0.6-1.4-1.1-0.4-0.5-0.6-1-0.8-1.6-0.2-0.6-0.2-1.3-0.2-2 0-0.7 0.1-1.3 0.3-1.9 0.2-0.6 0.5-1.1 0.9-1.6 0.4-0.5 0.8-0.8 1.4-1.1 0.6-0.3 1.2-0.4 1.9-0.4 0.4 0 0.7 0.1 1 0.2 0.3 0.1 0.6 0.2 0.9 0.4 0.3 0.2 0.5 0.4 0.7 0.6 0.2 0.2 0.4 0.5 0.5 0.8v-1.7h1.2v9c-0.2 0.8-0.3 1.5-0.5 2zm-2.7-2.6c0.4-0.2 0.7-0.5 1-0.9q0.4-0.6 0.6-1.2c0.1-0.5 0.2-1 0.2-1.4 0-0.5-0.1-1-0.2-1.4-0.1-0.5-0.3-0.9-0.6-1.3-0.3-0.4-0.6-0.7-1-1-0.4-0.3-0.9-0.4-1.5-0.4-0.6 0-1.1 0.1-1.5 0.4-0.4 0.2-0.7 0.5-1 0.9-0.3 0.4-0.5 0.8-0.6 1.3-0.1 0.5-0.2 1-0.2 1.5 0 0.5 0.1 1 0.2 1.4q0.1 0.7 0.6 1.2c0.3 0.4 0.6 0.7 1 0.9 0.4 0.2 0.9 0.3 1.4 0.3 0.7 0.1 1.2-0.1 1.6-0.3z"/>
		<path id="Layer" class="s0" d="m186.7 73.3v1.9h-1.2v-1.9zm0 3.7v9.8h-1.2v-9.8z"/>
		<path id="Layer" class="s0" d="m190.2 77v1.7c0.2-0.6 0.6-1.1 1.2-1.4 0.6-0.4 1.2-0.5 1.9-0.5 0.7 0 1.3 0.1 1.7 0.3 0.5 0.2 0.8 0.4 1.1 0.8q0.4 0.5 0.6 1.2c0.1 0.5 0.2 1 0.2 1.6v6.3h-1.2v-6.1c0-0.4 0-0.8-0.1-1.2-0.1-0.4-0.2-0.7-0.4-0.9-0.2-0.3-0.4-0.5-0.8-0.6-0.3-0.2-0.7-0.2-1.2-0.2-0.5 0-0.9 0.1-1.3 0.3-0.4 0.2-0.7 0.4-1 0.7-0.3 0.3-0.5 0.7-0.6 1.1-0.1 0.4-0.2 0.9-0.2 1.3v5.7h-1.1v-10.1z"/>
		<path id="Layer" fill-rule="evenodd" class="s0" d="m207.3 88c-0.2 0.6-0.4 1.1-0.8 1.5-0.3 0.4-0.8 0.7-1.3 0.9-0.6 0.2-1.2 0.3-2 0.3-0.5 0-1-0.1-1.4-0.2-0.5-0.1-0.9-0.3-1.3-0.5-0.4-0.2-0.7-0.6-0.9-0.9-0.2-0.4-0.4-0.8-0.4-1.3h1.2c0.1 0.4 0.2 0.7 0.4 0.9 0.2 0.2 0.4 0.4 0.7 0.6q0.5 0.3 0.9 0.3c0.3 0.1 0.6 0.1 1 0.1 1.1 0 1.9-0.3 2.4-1 0.5-0.6 0.7-1.6 0.7-2.7v-1.3q-0.5 0.9-1.2 1.5c-0.5 0.4-1.2 0.6-1.9 0.6-0.8 0-1.5-0.1-2-0.4-0.5-0.3-1-0.6-1.4-1.1-0.4-0.5-0.6-1-0.8-1.6-0.2-0.6-0.2-1.3-0.2-2 0-0.7 0.1-1.3 0.3-1.9 0.2-0.6 0.5-1.1 0.9-1.6 0.4-0.5 0.8-0.8 1.4-1.1 0.6-0.3 1.2-0.4 1.9-0.4 0.4 0 0.7 0.1 1 0.2 0.3 0.1 0.6 0.2 0.9 0.4 0.3 0.2 0.5 0.4 0.7 0.6 0.2 0.2 0.4 0.5 0.5 0.8v-1.7h1.2v9c-0.3 0.8-0.3 1.5-0.5 2zm-2.8-2.6c0.4-0.2 0.7-0.5 1-0.9q0.5-0.6 0.6-1.2c0.1-0.5 0.2-1 0.2-1.4 0-0.5-0.1-1-0.2-1.4-0.1-0.5-0.3-0.9-0.6-1.3-0.3-0.4-0.6-0.7-1-1-0.4-0.3-0.9-0.4-1.5-0.4-0.6 0-1.1 0.1-1.5 0.4-0.4 0.2-0.7 0.5-1 0.9-0.3 0.4-0.5 0.8-0.6 1.3-0.1 0.5-0.2 1-0.2 1.5 0 0.5 0.1 1 0.2 1.4q0.1 0.7 0.6 1.2c0.3 0.4 0.6 0.7 1 0.9 0.4 0.2 0.9 0.3 1.4 0.3 0.8 0.1 1.2-0.1 1.6-0.3z"/>
		<path id="Layer" class="s0" d="m216.7 73.3v12.5h7.6v1.1h-8.9v-13.6z"/>
		<path id="Layer" class="s0" d="m226.6 73.3v1.9h-1.2v-1.9zm0 3.7v9.8h-1.2v-9.8z"/>
		<path id="Layer" class="s0" d="m229.1 77l3.1 8.6 3.1-8.6h1.2l-3.7 9.8h-1.3l-3.8-9.8z"/>
		<path id="Layer" fill-rule="evenodd" class="s0" d="m238.6 83.6q0.2 0.8 0.6 1.2c0.3 0.4 0.6 0.7 1 0.9 0.4 0.2 0.9 0.4 1.5 0.4 0.9 0 1.6-0.2 2.1-0.7 0.5-0.5 0.8-1.1 1-1.8h1.2c-0.3 1.1-0.7 2-1.4 2.6-0.7 0.6-1.6 0.9-2.9 0.9-0.8 0-1.4-0.1-2-0.4-0.6-0.3-1-0.6-1.4-1.1-0.4-0.5-0.6-1-0.8-1.7-0.2-0.6-0.3-1.3-0.3-2 0-0.6 0.1-1.3 0.3-1.9 0.2-0.6 0.4-1.2 0.8-1.7 0.4-0.5 0.8-0.9 1.4-1.2 0.6-0.3 1.2-0.4 2-0.4 0.8 0 1.5 0.2 2 0.5 0.6 0.3 1 0.7 1.4 1.2 0.3 0.5 0.6 1.1 0.8 1.8 0.2 0.7 0.2 1.3 0.2 2h-7.6c-0.1 0.5 0 1 0.1 1.4zm6-3.6c-0.1-0.4-0.4-0.8-0.6-1.1-0.3-0.3-0.6-0.6-1-0.8-0.4-0.2-0.8-0.3-1.3-0.3-0.5 0-0.9 0.1-1.3 0.3-0.4 0.2-0.7 0.5-1 0.8-0.3 0.3-0.5 0.7-0.6 1.1-0.2 0.4-0.3 0.9-0.3 1.3h6.4c-0.1-0.5-0.2-0.9-0.3-1.3z"/>
		<path id="Layer" class="s0" d="m253.3 79c-0.1-0.3-0.3-0.5-0.6-0.7-0.2-0.2-0.5-0.3-0.8-0.4-0.3-0.1-0.6-0.1-1-0.1-0.3 0-0.5 0-0.8 0.1-0.3 0.1-0.5 0.2-0.8 0.3-0.2 0.1-0.4 0.3-0.6 0.5-0.1 0.2-0.2 0.5-0.2 0.8 0 0.3 0.1 0.5 0.2 0.7 0.1 0.2 0.3 0.3 0.5 0.5 0.2 0.1 0.4 0.2 0.7 0.3 0.2 0.1 0.5 0.1 0.7 0.2l1.6 0.4c0.3 0.1 0.7 0.1 1 0.3 0.3 0.1 0.6 0.3 0.9 0.5 0.3 0.2 0.5 0.5 0.6 0.8 0.2 0.3 0.2 0.7 0.2 1.1 0 0.5-0.1 1-0.4 1.4-0.2 0.4-0.6 0.7-0.9 0.9-0.4 0.2-0.8 0.4-1.3 0.5-0.5 0.1-0.9 0.2-1.4 0.2-1.2 0-2.1-0.3-2.8-0.8-0.7-0.5-1.1-1.4-1.2-2.6h1.2c0.1 0.8 0.3 1.4 0.9 1.8 0.5 0.4 1.2 0.6 2 0.6 0.3 0 0.6 0 0.9-0.1q0.4-0.2 0.9-0.3c0.3-0.2 0.5-0.3 0.7-0.6q0.3-0.3 0.3-0.9c0-0.3-0.1-0.5-0.2-0.7-0.1-0.2-0.3-0.4-0.5-0.5-0.2-0.1-0.4-0.2-0.7-0.3-0.3-0.1-0.5-0.2-0.8-0.2l-1.5-0.3c-0.4-0.1-0.8-0.2-1.1-0.4-0.3-0.1-0.6-0.3-0.9-0.5-0.2-0.2-0.4-0.4-0.6-0.7-0.1-0.3-0.2-0.6-0.2-1.1 0-0.5 0.1-0.9 0.3-1.3 0.2-0.4 0.5-0.6 0.9-0.9 0.4-0.2 0.8-0.4 1.2-0.5 0.4-0.1 0.9-0.2 1.3-0.2 0.5 0 1 0.1 1.4 0.2 0.4 0.1 0.8 0.3 1.1 0.6 0.3 0.3 0.6 0.6 0.8 1 0.2 0.4 0.3 0.9 0.3 1.4h-1.2c0.1-0.5 0-0.8-0.1-1z"/>
		<path id="Layer" class="s0" d="m264 78v8.8h-1.2v-8.8h-1.7v-1h1.7v-0.9c0-0.4 0-0.8 0.1-1.2 0.1-0.4 0.2-0.7 0.4-0.9 0.2-0.3 0.4-0.5 0.7-0.6 0.3-0.1 0.7-0.2 1.2-0.2 0.2 0 0.3 0 0.5 0 0.2 0 0.3 0 0.5 0.1v1c-0.2 0-0.3 0-0.5-0.1-0.1 0-0.3 0-0.4 0-0.3 0-0.6 0.1-0.8 0.2-0.2 0.1-0.3 0.2-0.4 0.4-0.1 0.2-0.1 0.4-0.1 0.6 0 0.2 0 0.5 0 0.7v0.9h1.9v1z"/>
		<path id="Layer" fill-rule="evenodd" class="s0" d="m273.2 77.2c0.6 0.3 1.1 0.7 1.5 1.1 0.4 0.5 0.7 1 0.9 1.7 0.2 0.6 0.3 1.3 0.3 2 0 0.7-0.1 1.4-0.3 2-0.2 0.6-0.5 1.2-0.9 1.7-0.4 0.5-0.9 0.8-1.5 1.1-0.6 0.3-1.2 0.4-2 0.4-0.8 0-1.4-0.1-2-0.4-0.6-0.3-1.1-0.6-1.5-1.1-0.4-0.5-0.7-1-0.9-1.7-0.2-0.6-0.3-1.3-0.3-2 0-0.7 0.1-1.4 0.3-2 0.2-0.6 0.5-1.2 0.9-1.7 0.4-0.5 0.9-0.8 1.5-1.1 0.6-0.3 1.2-0.4 2-0.4 0.8 0 1.4 0.1 2 0.4zm-3.5 0.9c-0.4 0.2-0.8 0.6-1.1 1-0.3 0.4-0.5 0.8-0.6 1.3-0.1 0.5-0.2 1-0.2 1.5 0 0.5 0.1 1 0.2 1.5 0.1 0.5 0.4 1 0.6 1.3 0.3 0.4 0.6 0.7 1.1 1 0.4 0.2 0.9 0.4 1.5 0.4 0.6 0 1.1-0.1 1.5-0.4 0.4-0.2 0.8-0.6 1.1-1 0.3-0.4 0.5-0.8 0.6-1.3 0.1-0.5 0.2-1 0.2-1.5 0-0.5-0.1-1-0.2-1.5-0.1-0.5-0.4-1-0.6-1.3-0.3-0.4-0.6-0.7-1.1-1-0.4-0.2-0.9-0.4-1.5-0.4-0.6 0-1.1 0.2-1.5 0.4z"/>
		<path id="Layer" class="s0" d="m278.8 77v2.3c0.3-0.8 0.8-1.4 1.4-1.8 0.6-0.4 1.4-0.6 2.3-0.6v1.2c-0.5 0-1 0-1.5 0.2-0.4 0.2-0.8 0.4-1.2 0.7-0.3 0.3-0.6 0.7-0.8 1.1-0.2 0.4-0.3 0.9-0.3 1.4v5.2h-1.2v-9.7z"/>
		<path id="Layer" class="s0" d="m290.1 84.2c0.2 0.5 0.5 0.8 0.9 1.1 0.4 0.3 0.9 0.5 1.4 0.6 0.5 0.1 1.1 0.2 1.8 0.2 0.4 0 0.7-0.1 1.2-0.2 0.4-0.1 0.8-0.3 1.2-0.5q0.6-0.3 0.9-0.9c0.2-0.3 0.4-0.8 0.4-1.3 0-0.4-0.1-0.7-0.3-1-0.2-0.3-0.4-0.5-0.7-0.7-0.3-0.2-0.6-0.3-0.9-0.5-0.3-0.1-0.7-0.2-1-0.3l-3-0.7c-0.4-0.1-0.8-0.2-1.2-0.4-0.4-0.2-0.7-0.4-1-0.6-0.3-0.3-0.5-0.6-0.7-0.9-0.2-0.3-0.3-0.8-0.3-1.4 0-0.3 0.1-0.7 0.2-1.2 0.1-0.4 0.4-0.9 0.7-1.3 0.4-0.4 0.8-0.7 1.4-1 0.6-0.3 1.4-0.4 2.3-0.4 0.7 0 1.3 0.1 1.9 0.3 0.6 0.2 1.1 0.4 1.6 0.8 0.5 0.4 0.8 0.8 1.1 1.3 0.3 0.5 0.4 1.1 0.4 1.8h-1.3c0-0.5-0.1-1-0.4-1.4-0.2-0.4-0.5-0.7-0.8-1q-0.5-0.4-1.2-0.6c-0.4-0.1-0.9-0.2-1.4-0.2-0.4 0-0.9 0-1.3 0.1-0.4 0.1-0.8 0.2-1.1 0.5-0.3 0.2-0.6 0.5-0.8 0.8-0.2 0.3-0.3 0.8-0.3 1.3 0 0.3 0.1 0.6 0.2 0.8 0.1 0.2 0.3 0.4 0.4 0.6 0.2 0.2 0.4 0.3 0.7 0.4 0.2 0.1 0.5 0.2 0.8 0.2l3.3 0.8c0.5 0.1 0.9 0.3 1.4 0.5 0.4 0.2 0.8 0.4 1.1 0.7 0.3 0.3 0.6 0.6 0.8 1 0.2 0.4 0.3 0.9 0.3 1.4q0 0.3 0 0.6c0 0.3-0.1 0.5-0.2 0.8-0.1 0.3-0.3 0.6-0.5 0.9-0.2 0.3-0.5 0.6-0.9 0.8-0.4 0.2-0.9 0.4-1.4 0.6-0.6 0.1-1.3 0.2-2.1 0.2-0.8 0-1.5-0.1-2.2-0.3-0.7-0.2-1.3-0.5-1.8-0.8-0.5-0.4-0.9-0.9-1.1-1.5-0.3-0.6-0.4-1.3-0.3-2.2h1.3c0.2 1.1 0.3 1.7 0.5 2.2z"/>
		<path id="Layer" fill-rule="evenodd" class="s0" d="m301.2 78.6c0.2-0.4 0.5-0.8 0.8-1q0.6-0.4 1.2-0.6c0.5-0.1 1-0.2 1.6-0.2 0.4 0 0.9 0 1.3 0.1 0.4 0.1 0.8 0.2 1.2 0.5 0.3 0.2 0.6 0.6 0.8 1 0.2 0.4 0.3 1 0.3 1.6v5.2c0 0.5 0.2 0.7 0.7 0.7 0.1 0 0.3 0 0.4-0.1v1c-0.1 0-0.3 0-0.4 0.1-0.1 0-0.2 0-0.4 0-0.3 0-0.6 0-0.7-0.1-0.2-0.1-0.3-0.2-0.4-0.4-0.1-0.2-0.2-0.3-0.2-0.5 0-0.2 0-0.4 0-0.7-0.2 0.3-0.4 0.6-0.7 0.8-0.2 0.2-0.5 0.5-0.7 0.6-0.3 0.2-0.6 0.3-0.9 0.4-0.4 0.1-0.8 0.1-1.2 0.1-0.5 0-0.9-0.1-1.3-0.2-0.4-0.1-0.8-0.3-1-0.5-0.3-0.2-0.5-0.5-0.7-0.9-0.2-0.4-0.3-0.8-0.3-1.3 0-0.7 0.2-1.2 0.5-1.6q0.5-0.6 1.2-0.9c0.5-0.2 1.1-0.3 1.7-0.4 0.6-0.1 1.3-0.2 1.9-0.2 0.3 0 0.5-0.1 0.7-0.1 0.2 0 0.4-0.1 0.5-0.2 0.1-0.1 0.2-0.2 0.3-0.4 0.1-0.2 0.1-0.4 0.1-0.6 0-0.4-0.1-0.7-0.2-1q-0.1-0.4-0.6-0.6c-0.2-0.2-0.5-0.3-0.8-0.3-0.3-0.1-0.6-0.1-1-0.1-0.8 0-1.4 0.2-1.9 0.5-0.5 0.4-0.7 0.9-0.8 1.7h-1.2c-0.1-0.5 0-1 0.2-1.4zm6 2.9c-0.1 0.1-0.2 0.2-0.4 0.3-0.2 0.1-0.4 0.1-0.6 0.1-0.5 0.1-1 0.2-1.6 0.2q-0.7 0.2-1.5 0.3c-0.4 0.1-0.8 0.3-1.1 0.6-0.3 0.3-0.4 0.6-0.4 1.1 0 0.3 0.1 0.6 0.2 0.8 0.1 0.2 0.3 0.4 0.5 0.6 0.2 0.2 0.4 0.3 0.7 0.4 0.3 0.1 0.5 0.1 0.8 0.1 0.5 0 0.9-0.1 1.3-0.2 0.4-0.1 0.8-0.3 1.1-0.6 0.3-0.3 0.6-0.6 0.7-1 0.2-0.4 0.3-0.8 0.3-1.3z"/>
		<path id="Layer" class="s0" d="m312.7 78v8.8h-1.2v-8.8h-1.7v-1h1.7v-0.9c0-0.4 0-0.8 0.1-1.2 0.1-0.4 0.2-0.7 0.4-0.9 0.2-0.3 0.4-0.5 0.7-0.6 0.3-0.1 0.7-0.2 1.2-0.2 0.2 0 0.3 0 0.5 0 0.2 0 0.3 0 0.5 0.1v1c-0.2 0-0.3 0-0.5-0.1-0.1 0-0.3 0-0.4 0-0.3 0-0.6 0.1-0.8 0.2-0.2 0.1-0.3 0.2-0.4 0.4-0.1 0.2-0.1 0.4-0.1 0.6 0 0.2 0 0.5 0 0.7v0.9h1.9v1z"/>
		<path id="Layer" fill-rule="evenodd" class="s0" d="m316.7 83.6q0.2 0.8 0.6 1.2c0.3 0.4 0.6 0.7 1 0.9 0.4 0.2 0.9 0.4 1.5 0.4 0.9 0 1.6-0.2 2.1-0.7 0.5-0.5 0.8-1.1 1-1.8h1.2c-0.3 1.1-0.7 2-1.4 2.6-0.7 0.6-1.6 0.9-2.9 0.9-0.8 0-1.4-0.1-2-0.4-0.6-0.3-1-0.6-1.4-1.1-0.4-0.5-0.6-1-0.8-1.7-0.2-0.6-0.3-1.3-0.3-2 0-0.6 0.1-1.3 0.3-1.9 0.2-0.6 0.4-1.2 0.8-1.7 0.4-0.5 0.8-0.9 1.4-1.2 0.6-0.3 1.2-0.4 2-0.4 0.8 0 1.5 0.2 2 0.5 0.6 0.3 1 0.7 1.4 1.2 0.3 0.5 0.6 1.1 0.8 1.8 0.2 0.7 0.2 1.3 0.2 2h-7.6c-0.1 0.5 0 1 0.1 1.4zm6-3.6c-0.1-0.4-0.4-0.8-0.6-1.1-0.3-0.3-0.6-0.6-1-0.8-0.4-0.2-0.8-0.3-1.3-0.3-0.5 0-0.9 0.1-1.3 0.3-0.4 0.2-0.7 0.5-1 0.8-0.3 0.3-0.5 0.7-0.6 1.1-0.2 0.4-0.3 0.9-0.3 1.3h6.4c-0.1-0.5-0.2-0.9-0.3-1.3z"/>
		<path id="Layer" class="s0" d="m326.8 77v2.3c0.3-0.8 0.8-1.4 1.4-1.8 0.6-0.4 1.4-0.6 2.3-0.6v1.2c-0.5 0-1 0-1.5 0.2-0.4 0.2-0.8 0.4-1.2 0.7-0.3 0.3-0.6 0.7-0.8 1.1-0.2 0.4-0.3 0.9-0.3 1.4v5.2h-1.2v-9.7z"/>
		<path id="Layer" class="s0" d="m346.7 76c-0.3-0.4-0.6-0.8-1-1q-0.6-0.5-1.2-0.6c-0.5-0.1-0.9-0.2-1.4-0.2-0.9 0-1.7 0.2-2.3 0.5-0.6 0.3-1.2 0.8-1.6 1.4-0.4 0.6-0.7 1.2-0.9 1.9-0.2 0.7-0.3 1.4-0.3 2.2 0 0.7 0.1 1.5 0.3 2.2 0.2 0.7 0.5 1.4 0.9 1.9 0.4 0.6 0.9 1 1.6 1.4 0.6 0.3 1.4 0.5 2.3 0.5 0.6 0 1.2-0.1 1.7-0.3 0.5-0.2 0.9-0.5 1.3-0.9 0.4-0.4 0.7-0.9 0.9-1.4 0.2-0.5 0.4-1.1 0.4-1.7h1.3c-0.1 0.8-0.3 1.6-0.6 2.3-0.3 0.7-0.7 1.2-1.2 1.7-0.5 0.5-1.1 0.8-1.7 1.1-0.7 0.3-1.4 0.4-2.2 0.4-1.1 0-2-0.2-2.8-0.6-0.8-0.4-1.5-0.9-2-1.6-0.5-0.6-0.9-1.4-1.2-2.3-0.3-0.9-0.4-1.7-0.4-2.7 0-0.9 0.1-1.8 0.4-2.7 0.3-0.9 0.7-1.6 1.2-2.3 0.5-0.7 1.2-1.2 2-1.6 0.8-0.4 1.7-0.6 2.8-0.6 0.6 0 1.3 0.1 1.9 0.3 0.6 0.2 1.2 0.5 1.7 0.8 0.5 0.4 0.9 0.8 1.3 1.4 0.3 0.5 0.5 1.2 0.6 1.9h-1.3c-0.1-0.5-0.3-1-0.5-1.4z"/>
		<path id="Layer" fill-rule="evenodd" class="s0" d="m356.6 77.2c0.6 0.3 1.1 0.7 1.5 1.1 0.4 0.5 0.7 1 0.9 1.7 0.2 0.7 0.3 1.3 0.3 2 0 0.7-0.1 1.4-0.3 2-0.2 0.6-0.5 1.2-0.9 1.7-0.4 0.5-0.9 0.8-1.5 1.1-0.6 0.3-1.2 0.4-2 0.4-0.8 0-1.4-0.1-2-0.4-0.6-0.3-1.1-0.6-1.5-1.1-0.4-0.5-0.7-1-0.9-1.7-0.2-0.7-0.3-1.3-0.3-2 0-0.7 0.1-1.4 0.3-2 0.2-0.6 0.5-1.2 0.9-1.7 0.4-0.5 0.9-0.8 1.5-1.1 0.6-0.3 1.2-0.4 2-0.4 0.8-0.1 1.4 0.1 2 0.4zm-3.5 0.9c-0.4 0.2-0.8 0.6-1.1 1-0.3 0.4-0.5 0.8-0.6 1.3-0.1 0.5-0.2 1-0.2 1.5 0 0.5 0.1 1 0.2 1.5 0.1 0.5 0.4 1 0.6 1.3 0.3 0.4 0.6 0.7 1.1 1 0.4 0.2 0.9 0.4 1.5 0.4 0.6 0 1.1-0.1 1.5-0.4 0.4-0.2 0.8-0.6 1.1-1 0.3-0.4 0.5-0.8 0.6-1.3 0.1-0.5 0.2-1 0.2-1.5 0-0.5-0.1-1-0.2-1.5-0.1-0.5-0.4-1-0.6-1.3-0.3-0.4-0.6-0.7-1.1-1-0.4-0.2-0.9-0.4-1.5-0.4-0.5 0.1-1 0.2-1.5 0.4z"/>
		<path id="Layer" class="s0" d="m362.2 77v1.7h0.1c0.3-0.6 0.7-1.1 1.2-1.4 0.5-0.3 1.2-0.5 2-0.5 0.6 0 1.2 0.2 1.8 0.5 0.5 0.3 0.9 0.8 1.1 1.4 0.3-0.6 0.7-1.1 1.3-1.4 0.6-0.3 1.2-0.5 1.8-0.5 2.2 0 3.3 1.2 3.3 3.5v6.7h-1.2v-6.6c0-0.8-0.2-1.4-0.5-1.9q-0.5-0.6-1.8-0.6c-0.5 0-1 0.1-1.3 0.3-0.3 0.2-0.6 0.5-0.8 0.8-0.2 0.3-0.3 0.7-0.4 1.1-0.1 0.4-0.1 0.9-0.1 1.3v5.6h-1.2v-6.7c0-0.3 0-0.6-0.1-0.9-0.1-0.3-0.2-0.6-0.3-0.8-0.2-0.2-0.4-0.4-0.6-0.5-0.3-0.1-0.6-0.2-1-0.2-0.5 0-1 0.1-1.3 0.3-0.4 0.2-0.7 0.4-0.9 0.8-0.2 0.3-0.4 0.7-0.5 1.1-0.1 0.4-0.2 0.9-0.2 1.4v5.5h-1.2v-10z"/>
		<path id="Layer" class="s0" d="m378.1 77v1.7h0.1c0.3-0.6 0.7-1.1 1.2-1.4 0.5-0.3 1.2-0.5 2-0.5 0.6 0 1.2 0.2 1.8 0.5 0.5 0.3 0.9 0.8 1.1 1.4 0.3-0.6 0.7-1.1 1.3-1.4 0.6-0.3 1.2-0.5 1.8-0.5 2.2 0 3.3 1.2 3.3 3.5v6.7h-1.2v-6.6c0-0.8-0.2-1.4-0.5-1.9q-0.5-0.6-1.8-0.6c-0.5 0-1 0.1-1.3 0.3-0.3 0.2-0.6 0.5-0.8 0.8-0.2 0.3-0.3 0.7-0.4 1.1-0.1 0.4-0.1 0.9-0.1 1.3v5.6h-1.2v-6.7c0-0.3 0-0.6-0.1-0.9-0.1-0.3-0.2-0.6-0.3-0.8-0.2-0.2-0.4-0.4-0.6-0.5-0.3-0.1-0.6-0.2-1-0.2-0.5 0-1 0.1-1.3 0.3-0.4 0.2-0.7 0.4-0.9 0.8-0.2 0.3-0.4 0.7-0.5 1.1-0.1 0.4-0.2 0.9-0.2 1.4v5.5h-1.5v-10z"/>
		<path id="Layer" class="s0" d="m399.7 86.9v-1.8c-0.3 0.7-0.8 1.2-1.4 1.5-0.6 0.4-1.3 0.5-2 0.5-0.6 0-1.2-0.1-1.6-0.3-0.4-0.2-0.8-0.4-1.1-0.7q-0.4-0.5-0.6-1.2c-0.1-0.5-0.2-1-0.2-1.6v-6.3h1.2v6.4c0 0.9 0.2 1.6 0.6 2 0.4 0.5 1.1 0.7 2 0.7 0.5 0 1-0.1 1.3-0.3q0.6-0.3 0.9-0.9c0.2-0.4 0.4-0.8 0.5-1.3 0.1-0.5 0.2-1 0.2-1.5v-5.1h1.2v9.8h-1z"/>
		<path id="Layer" class="s0" d="m404.3 77v1.7c0.2-0.6 0.6-1.1 1.2-1.4 0.6-0.4 1.2-0.5 1.9-0.5 0.7 0 1.3 0.1 1.7 0.3 0.5 0.2 0.8 0.4 1.1 0.8q0.4 0.5 0.6 1.2c0.1 0.5 0.2 1 0.2 1.6v6.3h-1.2v-6.1c0-0.4 0-0.8-0.1-1.2-0.1-0.4-0.2-0.7-0.4-0.9-0.2-0.3-0.4-0.5-0.8-0.6-0.3-0.2-0.7-0.2-1.2-0.2-0.5 0-0.9 0.1-1.3 0.3-0.4 0.2-0.7 0.4-1 0.7-0.3 0.3-0.5 0.7-0.6 1.1-0.1 0.4-0.2 0.9-0.2 1.3v5.7h-1.2v-10.1z"/>
		<path id="Layer" class="s0" d="m414.6 73.3v1.9h-1.2v-1.9zm0 3.7v9.8h-1.2v-9.8z"/>
		<path id="Layer" class="s0" d="m420.8 77v1h-2v6.6c0 0.4 0.1 0.7 0.2 0.9 0.1 0.2 0.4 0.3 0.8 0.4 0.3 0 0.7 0 1-0.1v1c-0.2 0-0.4 0-0.5 0-0.1 0-0.4 0-0.5 0-0.8 0-1.4-0.2-1.7-0.5-0.3-0.3-0.5-0.9-0.5-1.7v-6.6h-1.7v-1h1.7v-3h1.2v3z"/>
		<path id="Layer" class="s0" d="m423.7 73.3v1.9h-1.2v-1.9zm0 3.7v9.8h-1.2v-9.8z"/>
		<path id="Layer" fill-rule="evenodd" class="s0" d="m426.9 83.6q0.1 0.8 0.6 1.2c0.3 0.4 0.6 0.7 1 0.9 0.4 0.2 0.9 0.4 1.5 0.4 0.9 0 1.6-0.2 2.1-0.7 0.5-0.5 0.8-1.1 1-1.8h1.2c-0.3 1.1-0.7 2-1.4 2.6-0.7 0.6-1.6 0.9-2.9 0.9-0.8 0-1.4-0.1-2-0.4-0.6-0.3-1-0.6-1.4-1.1-0.4-0.5-0.6-1-0.8-1.7-0.2-0.6-0.3-1.3-0.3-2 0-0.6 0.1-1.3 0.3-1.9 0.2-0.6 0.4-1.2 0.8-1.7 0.4-0.5 0.8-0.9 1.4-1.2 0.6-0.3 1.2-0.4 2-0.4 0.8 0 1.5 0.2 2 0.5 0.6 0.3 1 0.7 1.4 1.2 0.3 0.5 0.6 1.1 0.8 1.8 0.2 0.7 0.2 1.3 0.2 2h-7.6c-0.1 0.5 0 1 0.1 1.4zm6-3.6c-0.1-0.4-0.4-0.8-0.6-1.1-0.3-0.3-0.6-0.6-1-0.8-0.4-0.2-0.8-0.3-1.3-0.3-0.5 0-0.9 0.1-1.3 0.3-0.4 0.2-0.7 0.5-1 0.8-0.3 0.3-0.5 0.7-0.6 1.1-0.2 0.4-0.3 0.9-0.3 1.3h6.4c-0.1-0.5-0.2-0.9-0.3-1.3z"/>
		<path id="Layer" class="s0" d="m441.6 79c-0.1-0.3-0.3-0.5-0.6-0.7-0.2-0.2-0.5-0.3-0.8-0.4-0.3-0.1-0.6-0.1-1-0.1-0.3 0-0.5 0-0.8 0.1-0.3 0.1-0.5 0.2-0.8 0.3-0.2 0.1-0.4 0.3-0.6 0.5-0.2 0.2-0.2 0.5-0.2 0.8 0 0.3 0.1 0.5 0.2 0.7 0.1 0.2 0.3 0.3 0.5 0.5 0.2 0.1 0.4 0.2 0.7 0.3 0.2 0.1 0.5 0.1 0.7 0.2l1.6 0.4c0.3 0.1 0.7 0.1 1 0.3 0.3 0.1 0.6 0.3 0.9 0.5 0.3 0.2 0.5 0.5 0.6 0.8 0.2 0.3 0.2 0.7 0.2 1.1 0 0.5-0.1 1-0.4 1.4q-0.3 0.6-0.9 0.9c-0.4 0.2-0.8 0.4-1.3 0.5-0.5 0.1-0.9 0.2-1.4 0.2-1.2 0-2.1-0.3-2.8-0.8-0.7-0.5-1.1-1.4-1.2-2.6h1.2c0.1 0.8 0.3 1.4 0.9 1.8 0.5 0.4 1.2 0.6 2 0.6 0.3 0 0.6 0 0.9-0.1q0.5-0.2 0.9-0.3c0.3-0.2 0.5-0.3 0.7-0.6q0.3-0.3 0.3-0.9c0-0.3-0.1-0.5-0.2-0.7-0.1-0.2-0.3-0.4-0.5-0.5-0.2-0.1-0.4-0.2-0.7-0.3-0.3-0.1-0.5-0.2-0.8-0.2l-1.5-0.3c-0.4-0.1-0.8-0.2-1.1-0.4-0.3-0.1-0.6-0.3-0.9-0.5-0.2-0.2-0.4-0.4-0.6-0.7-0.1-0.3-0.2-0.6-0.2-1.1 0-0.5 0.1-0.9 0.3-1.3 0.2-0.4 0.5-0.6 0.9-0.9 0.4-0.2 0.8-0.4 1.2-0.5 0.4-0.1 0.9-0.2 1.3-0.2 0.5 0 1 0.1 1.4 0.2 0.4 0.1 0.8 0.3 1.1 0.6 0.3 0.3 0.6 0.6 0.8 1 0.2 0.4 0.3 0.9 0.3 1.4h-1.2c0.1-0.5 0.1-0.8-0.1-1z"/>
	</g>
</svg>