<?xml version="1.0" encoding="utf-8"?>
<!-- Generator: Adobe Illustrator 26.0.3, SVG Export Plug-In . SVG Version: 6.00 Build 0)  -->
<svg version="1.1" id="Layer_1" xmlns="http://www.w3.org/2000/svg" xmlns:xlink="http://www.w3.org/1999/xlink" x="0px" y="0px"
	 viewBox="0 0 153.4 159.4" style="enable-background:new 0 0 153.4 159.4;" xml:space="preserve">
<style type="text/css">
	.st0{fill:#6DCFF6;}
	.st1{fill:#888CB8;}
	.st2{fill:#102B72;}
</style>
<path class="st0" d="M99.8,3.8c-16.4-5.4-34.1-5.1-50.2,1C38.1,20.6,33.1,40.3,35.7,59.6c20.7-20.9,51.1-28.8,79.3-20.7
	C113.1,26.1,107.8,14,99.8,3.8z"/>
<path class="st1" d="M151.6,68.5c-0.1-1.4-0.3-2.9-0.5-4.3s-0.5-3-0.8-4.5c-1.2-5.3-2.9-10.4-5.1-15.3c-0.2-0.4-0.4-0.8-0.6-1.2
	c-0.3-0.7-0.7-1.4-1-2.1c-0.2-0.4-0.4-0.8-0.7-1.2c-0.4-0.7-0.7-1.3-1.1-2s-0.6-1-0.9-1.4s-0.6-1-1-1.5s-0.8-1.3-1.2-1.9l-0.6-0.9
	c-0.6-0.8-1.2-1.7-1.8-2.5l-0.1-0.2c-5.3-6.9-11.8-12.8-19.1-17.5c-2.9-1.7-5.8-3.3-8.9-4.6c6.4,10,10.5,21.3,12,33.1
	c0.1,0.9,0.2,1.9,0.3,2.8s0.1,1.7,0.2,2.5c1,15-2.3,29.9-9.4,43.1c-1,1.8-2,3.5-3.1,5.3c-6.6,10.4-15.5,19.1-26.1,25.4
	c17.7,7.3,37.5,7.7,55.4,1c0.9-1.2,1.7-2.4,2.5-3.7C149.3,102.6,153.4,85.5,151.6,68.5z"/>
<path class="st2" d="M76.7,122.7c-0.9-0.4-1.8-0.9-2.7-1.3s-1.8-0.9-2.7-1.4c-19-10.7-32.9-28.6-38.5-49.8c-0.3-1-0.5-2-0.7-3
	c-0.2-1-0.5-2-0.6-3c-3.4-18-0.5-36.7,8.2-52.8c0.5-0.9,1.2-1.8,1.7-2.7c-3.3,1.7-6.5,3.5-9.5,5.6c-1.5,1-3,2.1-4.5,3.3
	C-3.5,43.1-9.1,88.6,14.7,121c0.4,0.6,0.9,1.2,1.3,1.7s0.8,1.1,1.3,1.7c0,0,0,0.1,0.1,0.1c0.5,0.5,0.9,1.1,1.4,1.6
	c21.7,24.7,56.8,32.7,87,19.7c0.6-0.3,1.2-0.5,1.9-0.8c0.3-0.2,0.6-0.3,1-0.5c8.6-4.1,16.4-9.9,22.8-16.9
	C113.2,132.4,93.8,130.7,76.7,122.7z"/>
<path class="st2" d="M170.9,39h4.6l4.9,16.6h0.1l2.1-16.6h3.5l-2.7,21.2h-4.6l-4.9-16.5h-0.1l-2.1,16.5h-3.5L170.9,39z"/>
<path class="st2" d="M195.9,44.4c3.2,0,6.7,1.7,5.8,8c-0.8,6.6-4.7,8.1-7.9,8.1s-6.7-1.5-5.9-8.1C188.8,46,192.7,44.4,195.9,44.4z
	 M194.2,57.8c2.4,0,3.3-2.8,3.7-5.4s0.1-5.4-2.3-5.4s-3.4,2.8-3.7,5.4S191.7,57.8,194.2,57.8z"/>
<path class="st2" d="M205.5,47.2c0.1-0.9,0.2-1.7,0.2-2.6h3.4c-0.1,0.9-0.1,1.9-0.2,2.9h0.1c0.6-1.2,2-3.1,4.4-3.1
	c0.2,0,0.4,0,0.6,0.1l-0.5,3.5c-0.3-0.1-0.7-0.1-1-0.1c-1.5,0-3.4,0.9-3.7,3.9l-1.1,8.6h-3.8L205.5,47.2z"/>
<path class="st2" d="M218.2,41.4l3.9-1.1l-0.6,4.4h3.2l-0.3,2.8h-3.1l-1,8.1c-0.2,1.7,0.3,2.1,1.4,2.1c0.5,0,1-0.1,1.5-0.3l-0.3,2.7
	c-0.8,0.4-1.7,0.5-2.6,0.5c-2.8,0-4.2-1.3-3.8-4.6l1.1-8.6H215l0.3-2.8h2.5L218.2,41.4z"/>
<path class="st2" d="M228,37.5h3.7l-1.2,9.1h0.2c0.9-1.4,2.5-2.3,4.2-2.2c3.6,0,4.3,2.6,3.9,5.8l-1.3,10.1h-3.8l1.2-9.4
	c0.3-2.4-0.2-3.4-1.7-3.4c-2,0-2.9,1.7-3.1,3.7l-1.2,9.1h-3.8L228,37.5z"/>
<path class="st2" d="M252.4,59.5c-1.5,0.6-3.1,1-4.8,1c-5,0-6.8-3.6-6.2-7.8c0.6-4.7,3.5-8.3,7.5-8.3c3.4,0,6,2,5.2,8.4l-0.1,0.7h-9
	c-0.3,2.7,0.5,4.3,3.4,4.3c1.5,0.1,3-0.4,4.2-1.2L252.4,59.5z M250.6,51.1c0.3-2.8-0.4-4.2-2.1-4.2c-2,0-3.1,2.1-3.3,4.2H250.6z"/>
<path class="st2" d="M257.8,47.2c0.1-0.9,0.2-1.7,0.2-2.6h3.4c-0.1,0.9-0.1,1.9-0.2,2.9h0.1c0.8-1.8,2.4-3,4.4-3.1
	c0.2,0,0.4,0,0.6,0.1l-0.5,3.5c-0.3-0.1-0.7-0.1-1-0.1c-1.5,0-3.4,0.9-3.7,3.9l-1.1,8.6h-3.8L257.8,47.2z"/>
<path class="st2" d="M268.4,47.2c0.1-0.9,0.2-1.7,0.2-2.6h3.5c-0.1,0.8-0.1,1.6-0.2,2.4h0.1c0.9-1.6,2.6-2.6,4.5-2.6
	c3.5,0,4.3,2.6,3.9,5.8l-1.3,10.1h-3.8l1.2-9.4c0.3-2.4-0.2-3.4-1.7-3.4c-2,0-2.9,1.7-3.1,3.7l-1.2,9.1h-3.8L268.4,47.2z"/>
<path class="st2" d="M293.7,39h3.9l-2.7,21.2H291L293.7,39z"/>
<path class="st2" d="M300.6,47.2c0.1-0.9,0.2-1.7,0.2-2.6h3.4c-0.1,0.9-0.1,1.9-0.2,2.9h0.1c0.8-1.8,2.5-3,4.4-3.1
	c0.2,0,0.4,0,0.6,0.1l-0.5,3.5c-0.3-0.1-0.7-0.1-1-0.1c-1.5,0-3.4,0.9-3.8,3.9l-1.1,8.6h-3.8L300.6,47.2z"/>
<path class="st2" d="M320.8,59.5c-1.5,0.6-3.2,1-4.8,1c-5,0-6.8-3.6-6.2-7.8c0.6-4.7,3.5-8.3,7.5-8.3c3.4,0,6,2,5.2,8.4l-0.1,0.7h-9
	c-0.3,2.7,0.5,4.3,3.4,4.3c1.5,0.1,3-0.4,4.3-1.2L320.8,59.5z M319,51.1c0.4-2.8-0.4-4.2-2.1-4.2c-2,0-3.1,2.1-3.3,4.2H319z"/>
<path class="st2" d="M327.7,37.5h3.8l-2.9,22.8h-3.9L327.7,37.5z"/>
<path class="st2" d="M334.9,45.5c1.6-0.8,3.3-1.1,5.1-1.1c4.9,0,5.7,2.4,5.2,6.3l-0.9,6.8c-0.1,0.9-0.2,1.8-0.1,2.8h-3.4
	c-0.1-0.7-0.1-1.4,0.1-2.1h-0.1c-1.1,1.5-2.8,2.4-4.7,2.4c-2.1,0.2-4-1.5-4.1-3.6c0-0.3,0-0.7,0.1-1c0.5-4.2,4.2-5.3,8.9-5.3h0.8
	l0.1-0.6c0.2-1.5-0.4-3-2.5-3c-1.6,0-3.2,0.6-4.5,1.5L334.9,45.5z M341.4,52.6h-0.3c-3.2,0-5.2,0.7-5.5,3c-0.2,1.1,0.5,2.1,1.6,2.3
	c0.2,0,0.4,0,0.5,0c2.2,0,3.3-1.7,3.6-4.5L341.4,52.6z"/>
<path class="st2" d="M349.2,47.2c0.1-0.9,0.2-1.7,0.2-2.6h3.5c-0.1,0.8-0.1,1.6-0.2,2.4h0c0.9-1.6,2.6-2.6,4.5-2.6
	c3.6,0,4.3,2.6,3.9,5.8l-1.3,10.1H356l1.2-9.4c0.3-2.4-0.2-3.4-1.7-3.4c-2,0-2.9,1.7-3.1,3.7l-1.2,9.1h-3.8L349.2,47.2z"/>
<path class="st2" d="M379,37.5l-2.6,20.1c-0.1,0.9-0.2,1.8-0.2,2.7h-3.5c0-0.8,0.1-1.6,0.2-2.4h-0.1c-0.9,1.7-2.6,2.7-4.5,2.7
	c-3.9,0-5-3.7-4.5-8c0.7-5.1,3.1-8.1,6.4-8.1c1.7-0.1,3.2,0.9,3.7,2.5h0.1l1.2-9.4L379,37.5z M369.7,57.7c2.2,0,3.3-2.4,3.7-5.3
	s-0.2-5.3-2.2-5.3s-3.1,2-3.5,5.2C367.1,55.9,367.5,57.7,369.7,57.7z"/>
<path class="st2" d="M166.4,73.8h18.8c13.5,0,19.6,7.5,18,19.7s-9.6,19.8-23.1,19.8h-6.8l-3.3,25.4h-12L166.4,73.8z M179.1,104.2
	c7.5,0,11.3-3.6,12.2-10.7s-1.9-10.6-9.4-10.6h-4.5l-2.7,21.3L179.1,104.2z"/>
<path class="st2" d="M225.7,90.1c9.9,0,20.6,5.1,18.1,24.7c-2.6,20.1-14.5,24.8-24.4,24.8s-20.7-4.7-18.1-24.8
	C203.7,95.2,215.8,90.1,225.7,90.1z M220.4,131.3c7.5,0,10.3-8.6,11.3-16.6s0.4-16.5-7.1-16.5s-10.4,8.5-11.4,16.5
	C212.2,122.8,212.9,131.3,220.4,131.3z"/>
<path class="st2" d="M257.1,68.9h11.6l-9,69.8h-11.6L257.1,68.9z"/>
<path class="st2" d="M275.9,90.8h11.6l-6.2,48h-11.7L275.9,90.8z M278.3,70.4h12l-1.5,11.4h-12L278.3,70.4z"/>
<path class="st2" d="M323.2,137.6c-3.8,1.3-7.7,2-11.7,2c-16,0-21.3-11.1-19.6-24.7s10.3-24.8,26.5-24.8c3.4,0.1,6.7,0.8,9.9,2
	l-1.8,9.1c-2.4-1.4-5.1-2.3-7.9-2.4c-8.8,0-13.4,5.9-14.7,16.1c-1.2,8.9,2.3,15.8,11.2,15.8c3-0.2,5.9-0.9,8.6-2.3L323.2,137.6z"/>
<path class="st2" d="M334.7,90.8h11.6l-6.2,48h-11.6L334.7,90.8z M337.1,70.4h12l-1.5,11.4h-12L337.1,70.4z"/>
<path class="st2" d="M354.1,98.7c0.4-2.6,0.6-5.3,0.6-7.9h10.9c-0.2,2.4-0.2,4.9-0.6,7.4h0.2c2.1-2.9,6-8.1,13.9-8.1
	c11,0,13.2,8.1,12,17.8l-4,30.9h-11.6l3.7-28.8c0.9-7.4-0.5-10.4-5.3-10.4c-6.1,0-8.9,5.1-9.7,11.3l-3.6,27.9H349L354.1,98.7z"/>
<path class="st2" d="M395.4,146.2c4.1,2.5,8.9,4,13.8,4.1c11,0,13.7-7.5,14.7-15.1l0.6-4.6h-0.2c-2.3,3.7-6.2,8.1-13.8,8.1
	c-6.8,0-16.3-4.5-13.8-23.8c1.7-13.2,8-24.9,20.7-24.9c7,0,9.8,4,11.7,8.2h0.4c0.3-2.5,0.9-4.9,1.3-7.5h10.5c-0.5,2.5-1,5-1.3,7.5
	l-4.5,35.4c-1.9,15-7.9,25.7-25.6,25.7c-5.6,0-11.1-1-16.2-3L395.4,146.2z M414.3,130.3c7.3,0,10.9-5.2,12.3-16.1
	c1.3-10.1-1.9-15.5-7.4-15.4c-6.1,0.1-9.2,5.7-10.4,15.5C407.3,125.6,410.3,130.3,414.3,130.3z"/>
<path class="st0" d="M452.5,73.8h19.2c13.5,0,19.1,5,17.7,16c-1.3,10.3-8.3,13.4-12.8,15v0.2c4.9,1.1,11.8,4.6,10.4,15.6
	c-1.5,11.8-11.1,18.2-22.7,18.2h-20L452.5,73.8z M457,129.6h6.7c6.5,0,10.5-3.9,11.3-10c0.7-5.7-1.7-10-9.1-10h-6.3L457,129.6z
	 M460.7,100.9h6.2c5.9,0,10-4.4,10.6-9.7c0.7-5.5-2.8-8.8-8.5-8.8h-5.9L460.7,100.9z"/>
<path class="st0" d="M518.1,90.1c9.9,0,20.6,5.1,18.1,24.7c-2.6,20.1-14.5,24.8-24.4,24.8c-9.9,0-20.7-4.7-18.1-24.8
	C496.1,95.2,508.3,90.1,518.1,90.1z M512.8,131.3c7.5,0,10.3-8.6,11.3-16.6s0.4-16.5-7.1-16.5c-7.5,0-10.4,8.5-11.4,16.5
	C504.6,122.8,505.3,131.3,512.8,131.3z"/>
<path class="st0" d="M547.6,93.6c4.9-2.3,10.3-3.5,15.8-3.5c15,0,17.6,7.3,16,19.3l-2.7,21c-0.3,2.8-0.5,5.6-0.4,8.5h-10.6
	c-0.2-2.2-0.2-4.4,0.2-6.5h-0.2c-3.4,3.9-7.5,7.3-14.4,7.3c-7.5,0-13.8-5.1-12.7-14.1c1.7-13,12.8-16.3,27.5-16.3h2.3l0.2-1.8
	c0.6-4.8-1.2-9.1-7.8-9.1c-5,0.2-9.8,1.8-13.8,4.7L547.6,93.6z M567.7,115.3h-1c-10,0-16.1,2-17,9c-0.6,4.4,2,7.4,6.5,7.4
	c7,0,10.1-5.1,11.2-13.7L567.7,115.3z"/>
<path class="st0" d="M589.1,98.7c0.4-2.6,0.6-5.3,0.6-7.9h10.5c-0.3,2.9-0.4,5.9-0.8,8.8h0.2c1.9-3.7,6.3-9.5,13.5-9.5
	c0.7,0,1.3,0.1,1.9,0.3l-1.4,10.8c-1-0.3-2.1-0.5-3.2-0.5c-4.8,0-10.4,2.9-11.6,11.8l-3.4,26.3H584L589.1,98.7z"/>
<path class="st0" d="M661.6,68.9l-7.9,61.7c-0.4,2.7-0.6,5.4-0.7,8.2h-10.9c0-2.5,0.2-5,0.6-7.5h-0.3c-2.4,4.1-6.4,8.2-13.9,8.2
	c-12,0-15.5-11.4-13.8-24.7c2-15.6,9.5-24.8,19.9-24.8c7,0,10.3,3.9,11.5,7.6h0.2l3.7-28.8L661.6,68.9z M632.8,131
	c6.9,0,10.2-7.3,11.3-16.4c1.2-9.3-0.6-16.1-7-16.1c-6.4,0-9.5,6.2-10.8,15.8C624.9,125.5,626,131,632.8,131L632.8,131z"/>
</svg>
