<?xml version="1.0" standalone="no"?>
<!DOCTYPE svg PUBLIC "-//W3C//DTD SVG 20010904//EN"
 "http://www.w3.org/TR/2001/REC-SVG-20010904/DTD/svg10.dtd">
<svg version="1.0" xmlns="http://www.w3.org/2000/svg"
 width="636.000000pt" height="636.000000pt" viewBox="0 0 636.000000 636.000000"
 preserveAspectRatio="xMidYMid meet">
<metadata>
Created by potrace 1.14, written by Peter Selinger 2001-2017
</metadata>
<g transform="translate(0.000000,636.000000) scale(0.100000,-0.100000)"
fill="#000000" stroke="none">
<path d="M2939 6356 c-2 -2 -35 -6 -74 -10 -113 -11 -146 -15 -230 -31 -44 -9
-89 -17 -100 -19 -67 -13 -177 -42 -294 -79 l-134 -41 -48 -66 c-27 -36 -54
-76 -61 -90 -7 -14 -17 -29 -21 -35 -13 -16 -49 -75 -75 -125 -40 -75 -115
-225 -112 -225 2 0 -7 -19 -18 -42 -20 -38 -91 -220 -97 -246 -1 -7 -5 -19 -8
-27 -10 -25 -48 -153 -54 -180 -9 -45 -11 -55 -13 -55 -2 0 -5 -14 -13 -60 -3
-16 -8 -42 -11 -57 -13 -65 -17 -85 -21 -111 -9 -62 -15 -105 -20 -157 -3 -30
-8 -82 -11 -115 -14 -142 2 -573 22 -594 2 -2 29 21 61 51 106 101 117 110
253 219 35 28 76 58 90 67 14 9 27 19 30 22 9 9 143 97 175 114 17 9 53 30 80
47 159 95 506 246 655 284 175 45 292 74 320 79 19 3 44 7 55 10 11 2 42 7 68
10 27 4 58 9 69 11 19 4 109 13 213 21 60 5 383 4 438 -2 26 -2 66 -6 90 -8
71 -7 151 -17 167 -21 8 -2 33 -7 55 -10 45 -6 48 -6 155 -30 41 -9 85 -18 97
-21 12 -2 34 -9 48 -14 15 -6 30 -10 34 -10 7 0 2 47 -14 130 -4 19 -8 42 -10
50 -1 8 -7 33 -13 55 -6 22 -13 51 -16 65 -12 61 -72 245 -116 354 -78 198
-185 395 -318 591 -89 132 -116 161 -150 168 -15 3 -58 14 -97 26 -38 12 -80
23 -92 26 -29 6 -61 13 -93 20 -14 3 -50 10 -80 15 -30 6 -64 12 -75 14 -12 2
-48 7 -80 11 -33 4 -73 9 -90 12 -34 6 -511 14 -516 9z"/>
<path d="M4446 6048 c4 -7 15 -25 25 -39 42 -60 147 -263 211 -409 58 -129
140 -374 164 -489 3 -12 12 -53 20 -90 20 -85 23 -98 30 -146 3 -22 7 -49 9
-60 3 -22 15 -115 20 -155 5 -44 18 -283 18 -340 0 -72 -12 -298 -17 -330 -3
-14 -7 -47 -11 -75 -12 -97 -15 -111 -25 -165 -6 -30 -13 -66 -16 -80 -15 -77
-73 -295 -91 -340 -3 -8 -7 -19 -9 -25 -12 -50 -121 -315 -135 -329 -5 -6 -9
-15 -9 -21 0 -10 -22 -53 -114 -220 -38 -69 -80 -140 -86 -145 -3 -3 -21 -30
-40 -60 -43 -67 -198 -269 -254 -330 -49 -53 -230 -232 -277 -275 -50 -45
-227 -185 -234 -185 -3 0 -11 -5 -18 -10 -45 -38 -61 -50 -67 -50 -4 0 -16 -8
-28 -18 -11 -9 -42 -30 -68 -45 l-48 -29 79 -30 c44 -16 89 -33 100 -38 45
-18 268 -80 310 -86 11 -1 20 -3 20 -4 0 -2 12 -4 95 -20 36 -7 76 -14 90 -16
14 -1 39 -5 55 -8 208 -36 585 -34 840 4 33 5 78 12 100 15 22 4 48 8 57 11
10 3 28 7 40 10 13 2 33 6 46 9 12 3 32 7 43 10 12 2 47 12 78 21 31 9 61 17
66 19 35 8 71 19 80 24 6 3 17 6 25 8 8 1 23 6 35 12 11 5 28 12 37 14 16 6
168 227 168 247 0 5 3 10 8 10 4 0 12 10 18 23 6 12 38 74 71 138 73 142 88
177 156 362 20 53 34 97 30 97 -3 0 -1 6 4 13 17 21 81 280 98 402 4 22 9 54
12 70 13 76 26 287 26 415 0 160 -17 376 -39 500 -2 14 -7 43 -10 65 -3 22
-14 76 -25 120 -11 44 -21 89 -23 100 -2 11 -9 31 -14 45 -5 14 -10 28 -11 33
0 4 -1 8 -2 10 0 1 -2 9 -4 17 -7 32 -89 257 -105 290 -10 19 -18 38 -19 43
-1 12 -88 188 -124 252 -28 49 -86 142 -170 269 -86 131 -203 272 -332 401
-238 239 -498 427 -760 548 -33 16 -68 32 -77 38 -24 12 -31 11 -22 -3z"/>
<path d="M1745 6001 c-6 -4 -41 -25 -80 -46 -371 -199 -667 -453 -937 -806
-38 -48 -68 -90 -68 -94 0 -3 -8 -15 -18 -26 -11 -10 -25 -32 -33 -47 -8 -15
-17 -29 -20 -32 -14 -11 -135 -230 -171 -310 -16 -36 -40 -87 -53 -115 -23
-50 -84 -207 -91 -235 -2 -8 -20 -69 -39 -135 -20 -66 -38 -136 -41 -155 -3
-19 -7 -42 -10 -50 -6 -16 -10 -34 -19 -95 -5 -39 -10 -67 -20 -130 -21 -129
-28 -553 -11 -700 4 -38 9 -83 11 -100 2 -16 6 -43 9 -60 3 -16 8 -47 11 -69
4 -21 9 -48 11 -60 3 -11 7 -34 10 -51 3 -16 10 -44 15 -62 6 -17 12 -42 14
-56 3 -13 19 -69 36 -123 17 -54 34 -110 39 -124 37 -121 165 -392 254 -541
31 -50 56 -95 56 -100 0 -4 3 -9 8 -11 4 -2 20 -23 37 -48 32 -49 107 -152
115 -160 3 -3 21 -25 39 -48 64 -82 210 -235 322 -337 73 -67 206 -175 214
-175 3 0 13 -7 21 -15 21 -20 227 -155 296 -194 91 -50 267 -135 338 -164 77
-30 201 -76 225 -83 6 -1 51 -15 100 -29 138 -41 337 -83 430 -91 22 -2 49 -5
60 -8 32 -8 252 -19 358 -19 133 1 301 13 396 28 174 27 167 26 311 61 135 33
121 29 140 37 8 3 53 18 100 33 95 30 210 76 313 123 37 17 72 31 76 31 5 0
11 3 13 8 2 4 30 21 63 38 85 45 127 68 139 77 6 4 56 37 111 74 102 67 248
179 319 243 52 46 216 209 216 213 0 2 -24 -2 -52 -10 -29 -7 -69 -16 -88 -19
-19 -4 -39 -7 -45 -9 -267 -60 -730 -78 -1020 -39 -16 2 -48 6 -70 8 -22 3
-51 8 -65 10 -13 3 -42 8 -64 12 -22 3 -43 7 -46 9 -3 2 -21 6 -40 9 -19 3
-50 10 -68 15 -18 5 -36 10 -40 10 -7 1 -21 5 -87 22 -90 25 -291 94 -297 104
-4 5 -8 7 -8 3 0 -8 -139 51 -270 115 -151 74 -357 198 -451 272 -14 11 -41
31 -59 45 -153 114 -350 299 -479 450 -35 41 -67 77 -71 80 -3 3 -17 21 -30
40 -13 19 -27 37 -30 40 -3 3 -22 28 -41 55 -18 28 -37 52 -41 53 -5 2 -8 10
-8 17 0 7 -3 15 -8 17 -8 3 -112 163 -112 173 0 4 -12 25 -28 48 -46 70 -148
283 -199 417 -39 101 -92 260 -87 260 2 0 -2 14 -11 30 -9 17 -13 30 -11 30 3
0 -1 21 -9 48 -18 62 -21 75 -54 259 -25 135 -28 162 -38 278 -16 202 -4 605
22 741 3 16 8 45 11 64 9 58 12 74 18 100 3 14 8 36 11 50 22 118 109 400 157
510 10 25 23 54 27 65 27 66 127 265 156 311 31 48 35 69 10 45z"/>
</g>
</svg>
