<?xml version="1.0" standalone="no"?>
<!DOCTYPE svg PUBLIC "-//W3C//DTD SVG 20010904//EN"
 "http://www.w3.org/TR/2001/REC-SVG-20010904/DTD/svg10.dtd">
<svg version="1.0" xmlns="http://www.w3.org/2000/svg"
 width="246.000000pt" height="246.000000pt" viewBox="0 0 246.000000 246.000000"
 preserveAspectRatio="xMidYMid meet">
<metadata>
Created by potrace 1.14, written by Peter Selinger 2001-2017
</metadata>
<g transform="translate(0.000000,246.000000) scale(0.100000,-0.100000)"
fill="#000000" stroke="none">
<path d="M1302 2421 c-42 -47 -65 -92 -91 -175 -22 -71 -23 -76 -40 -166 -23
-119 -34 -267 -35 -440 0 -132 10 -335 19 -395 5 -30 14 -81 21 -122 2 -13 6
-33 8 -45 10 -56 30 -118 57 -173 44 -89 53 -102 67 -97 7 2 11 -2 10 -9 -2
-7 2 -13 9 -14 6 0 15 -3 19 -8 12 -12 26 -8 18 6 -6 9 -4 9 7 1 26 -19 70
-10 85 16 7 14 13 21 14 15 0 -11 19 15 48 66 22 40 67 173 76 229 32 189 41
297 41 505 0 163 -7 300 -20 380 -3 17 -7 44 -10 60 -2 17 -7 48 -11 70 -14
91 -68 238 -101 273 -7 7 -13 18 -13 23 0 5 -6 9 -14 9 -8 0 -17 7 -20 16 -4
11 -19 15 -59 13 -46 -2 -56 -6 -85 -38z m108 -214 c0 -5 4 -6 9 -3 5 3 20
-18 34 -48 46 -98 62 -240 62 -556 -1 -250 -7 -321 -39 -457 -8 -37 -36 -90
-57 -109 -24 -22 -53 -28 -46 -9 4 8 -1 11 -13 8 -34 -9 -74 105 -96 272 -10
76 -12 488 -3 585 10 109 39 250 51 250 5 0 7 4 4 8 -7 11 29 64 37 55 4 -3 7
-2 7 3 0 5 11 9 25 9 14 0 25 -4 25 -8z"/>
<path d="M0 1628 c0 -454 3 -827 6 -831 4 -4 14 -1 22 6 13 10 15 9 8 -7 -7
-20 -7 -20 15 0 22 19 22 19 16 -1 -6 -18 -6 -18 6 -4 9 13 12 145 12 597 0
319 3 575 6 569 4 -7 9 -30 13 -52 4 -22 25 -123 47 -225 23 -102 42 -192 44
-200 2 -8 15 -67 29 -130 15 -63 29 -126 31 -140 5 -25 10 -49 20 -93 3 -12
10 -42 15 -67 5 -25 16 -78 25 -119 10 -40 19 -80 20 -90 2 -9 4 -17 5 -18 3
-4 7 -20 9 -35 1 -9 4 -8 11 2 5 8 10 11 10 6 0 -5 6 -3 14 3 11 10 17 8 25
-6 6 -10 11 -12 11 -5 0 6 5 11 12 10 9 -2 12 183 13 810 0 448 -3 816 -8 819
-4 2 -5 8 -3 12 6 9 -31 7 -40 -2 -4 -4 -13 -2 -21 5 -8 6 -13 7 -12 2 1 -5 1
-11 0 -14 -1 -3 -3 -252 -3 -555 -1 -302 -3 -545 -4 -540 -2 6 -15 66 -29 135
-32 152 -33 159 -40 190 -3 14 -7 34 -9 45 -7 34 -76 357 -91 425 -28 128 -65
299 -65 304 0 3 -12 3 -26 0 -14 -3 -23 -1 -20 4 6 10 -30 9 -40 -1 -4 -4 -13
-2 -20 4 -11 9 -14 -132 -14 -813z"/>
<path d="M514 2438 c-3 -5 -8 -6 -12 -4 -4 2 -6 -365 -6 -817 1 -651 4 -822
14 -825 7 -3 10 0 7 5 -3 5 1 10 9 10 8 0 13 -6 10 -13 -3 -7 2 -10 15 -7 16
5 17 8 7 22 -11 14 -11 14 3 4 9 -7 20 -9 24 -5 5 4 5 -2 1 -13 -6 -16 -5 -18
6 -7 10 10 13 172 13 832 l0 819 -28 -5 c-16 -2 -26 -1 -23 4 2 4 -4 8 -15 8
-11 0 -23 -4 -25 -8z"/>
<path d="M853 2442 c-6 -4 -14 -32 -18 -62 -3 -30 -8 -66 -10 -80 -2 -14 -6
-50 -10 -80 -3 -30 -8 -71 -10 -90 -2 -19 -7 -60 -10 -90 -4 -30 -8 -66 -10
-80 -2 -14 -6 -52 -10 -85 -3 -33 -8 -71 -10 -85 -2 -14 -9 -70 -15 -125 -7
-55 -13 -113 -16 -130 -2 -16 -6 -55 -9 -85 -4 -30 -8 -66 -10 -80 -2 -14 -7
-52 -10 -85 -4 -33 -11 -87 -15 -120 -5 -33 -12 -91 -15 -128 -4 -38 -8 -77
-10 -88 -2 -10 -7 -50 -11 -89 -6 -62 -5 -70 10 -70 10 0 14 5 11 10 -3 6 -1
10 4 10 6 0 11 -4 11 -10 0 -5 7 -10 16 -10 9 0 12 5 8 13 -6 9 -4 9 8 -1 18
-15 18 -13 43 208 18 158 25 187 49 187 8 0 13 -4 10 -9 -3 -5 -10 -5 -16 -2
-7 4 -8 2 -4 -4 7 -12 36 -5 36 9 0 6 8 6 19 0 10 -6 21 -8 23 -5 9 9 68 13
63 4 -3 -5 -1 -11 4 -14 5 -4 11 1 13 11 3 15 4 15 20 0 12 -12 18 -14 21 -4
3 6 6 1 7 -13 1 -14 3 -34 5 -45 5 -30 24 -182 31 -250 4 -33 11 -63 16 -66 6
-4 5 -9 -3 -13 -8 -3 -4 -3 9 0 14 3 22 1 22 -8 0 -8 3 -9 8 -3 4 6 14 10 22
10 8 -1 21 4 29 9 12 9 13 7 8 -7 -4 -12 -3 -16 4 -11 11 6 9 30 -11 201 -17
148 -21 177 -25 203 -4 27 -12 92 -20 168 -3 26 -8 63 -10 82 -3 19 -7 58 -10
85 -6 46 -18 150 -31 250 -2 22 -7 58 -10 80 -2 22 -6 56 -9 75 -2 19 -7 58
-10 85 -3 28 -7 66 -10 85 -20 161 -38 318 -39 332 0 9 -4 14 -8 12 -19 -12
-53 -13 -60 -1 -6 9 -10 9 -20 -1 -14 -14 -32 -16 -23 -2 7 12 4 12 -12 2z
m62 -452 c3 -36 8 -78 10 -95 4 -30 8 -67 21 -179 3 -33 8 -67 9 -75 5 -26 19
-175 18 -188 -2 -30 -4 -34 -13 -28 -5 3 -41 7 -79 7 -58 1 -69 4 -66 17 1 9
6 45 10 81 4 36 9 73 11 83 1 9 5 45 9 80 5 56 31 274 40 337 2 14 4 41 5 60
l2 35 8 -35 c5 -19 11 -64 15 -100z"/>
<path d="M2390 2439 c0 -5 -4 -7 -10 -4 -6 4 -10 -45 -10 -139 0 -151 0 -151
43 -147 9 1 17 -3 17 -9 0 -7 6 -5 15 4 12 11 15 43 15 154 0 76 -3 142 -7
145 -3 4 -12 2 -19 -4 -8 -7 -14 -7 -19 1 -8 13 -25 13 -25 -1z"/>
<path d="M2164 2041 c3 -5 -1 -11 -9 -14 -26 -10 -68 -90 -90 -170 l-21 -79
-12 66 c-7 36 -18 78 -24 94 -6 15 -12 29 -13 32 -9 27 -20 40 -32 40 -8 0
-11 5 -8 10 7 11 4 12 -42 14 -20 2 -34 -3 -38 -11 -3 -8 -10 -11 -17 -7 -7 4
-10 4 -6 -1 4 -4 -1 -20 -11 -34 -24 -36 -51 -115 -55 -163 -1 -3 -3 -9 -6
-12 -3 -2 -5 37 -4 87 1 122 0 123 -45 121 -21 0 -42 -4 -47 -7 -11 -6 -12
-1207 -1 -1207 4 0 8 0 10 1 20 6 37 5 37 -2 0 -5 7 -9 16 -9 9 0 12 5 8 13
-5 8 -2 8 9 -2 15 -12 17 -11 18 5 0 11 2 190 4 399 1 209 6 396 9 415 16 83
51 163 75 168 20 4 59 -44 66 -81 3 -17 7 -43 9 -57 3 -14 5 -214 5 -445 1
-275 5 -415 11 -405 6 10 10 11 10 3 0 -7 7 -13 16 -13 9 0 12 5 8 12 -5 7 -3
8 6 3 8 -5 23 -9 34 -10 21 0 21 3 21 360 0 198 3 392 8 430 10 90 36 175 53
175 8 0 14 6 14 13 0 7 9 13 20 13 11 0 20 -6 20 -14 0 -7 4 -11 9 -7 10 6 27
-40 35 -96 3 -19 6 -224 7 -455 2 -381 3 -420 18 -419 9 0 23 5 30 10 11 6 13
4 7 -10 -6 -18 -6 -18 15 1 12 10 19 14 16 7 -4 -6 -2 -15 4 -19 8 -4 9 -3 5
4 -4 7 -3 12 3 12 15 0 12 883 -4 995 -17 116 -40 183 -77 219 -24 24 -31 27
-39 15 -5 -8 -9 -9 -9 -3 0 7 -7 15 -16 18 -8 3 -13 2 -10 -3z"/>
<path d="M2374 2011 c-2 -2 -4 -276 -4 -609 0 -527 2 -603 15 -599 8 4 17 2
21 -4 4 -6 12 -5 22 3 14 11 15 10 9 -6 -6 -16 -5 -17 8 -6 13 11 15 85 13
618 l-3 606 -38 1 c-21 0 -40 -1 -43 -4z"/>
<path d="M910 1179 c0 -5 5 -7 10 -4 6 3 10 8 10 11 0 2 -4 4 -10 4 -5 0 -10
-5 -10 -11z"/>
<path d="M763 642 c-41 -55 -55 -127 -58 -292 -5 -221 26 -350 85 -350 22 0
68 19 46 20 -5 0 -4 6 2 13 28 34 44 127 47 272 4 153 -8 244 -40 305 -8 15
-11 31 -7 34 3 4 -1 4 -11 0 -10 -4 -17 -1 -17 6 0 10 -3 10 -15 0 -13 -11
-14 -10 -9 4 9 24 0 19 -23 -12z m62 -92 c42 -80 41 -370 -1 -452 -17 -32 -26
-34 -48 -13 -25 26 -38 93 -41 210 -5 216 41 349 90 255z"/>
<path d="M969 663 c-1 -4 -1 -11 0 -15 0 -5 -4 -7 -11 -5 -14 2 -36 -71 -37
-125 -1 -25 -6 -38 -14 -38 -17 0 -16 -48 0 -58 9 -5 13 -70 14 -215 1 -167 4
-207 15 -207 16 0 16 5 14 246 -1 147 1 172 14 177 9 4 16 2 16 -2 0 -5 9 -7
20 -4 22 6 21 26 21 -263 1 -123 3 -151 15 -151 14 0 18 76 14 320 -1 82 0 89
19 94 15 4 21 13 21 35 0 16 -3 27 -7 25 -15 -9 -29 19 -27 53 2 54 3 60 12
59 34 -6 44 31 18 67 -14 18 -15 18 -21 2 -4 -10 -11 -16 -15 -13 -11 7 -26
-71 -29 -147 -1 -25 -4 -29 -11 -18 -9 13 -10 13 -10 0 0 -12 -2 -13 -9 -1 -7
11 -9 11 -14 0 -4 -11 -6 -11 -6 -1 -1 7 -6 10 -12 6 -8 -5 -10 8 -6 47 4 30
7 55 7 57 0 2 8 2 18 0 23 -4 29 46 8 68 -9 8 -17 12 -17 7z"/>
<path d="M79 643 c-4 -9 -6 -24 -13 -93 -4 -41 -11 -106 -16 -145 -5 -38 -12
-95 -15 -125 -4 -30 -12 -99 -19 -152 -9 -70 -9 -101 -2 -109 8 -9 7 -10 -4
-4 -12 6 -13 5 -3 -5 7 -8 15 -11 18 -9 5 6 15 77 23 172 2 15 9 18 43 15 38
-3 42 -6 45 -33 15 -132 20 -150 36 -153 12 -2 16 2 14 15 -2 10 -7 52 -11 93
-4 41 -9 82 -10 90 -2 8 -6 44 -9 80 -4 36 -9 76 -11 90 -2 14 -7 52 -10 85
-14 150 -23 192 -40 192 -8 0 -16 -2 -16 -4z m40 -357 c1 -32 -1 -36 -13 -27
-11 9 -15 9 -19 -1 -9 -21 -25 10 -22 41 2 14 7 58 11 96 8 79 11 105 14 120
3 14 28 -182 29 -229z"/>
<path d="M466 643 c-3 -3 -6 -49 -7 -102 0 -63 -3 -89 -9 -76 -5 11 -9 16 -9
11 -1 -6 -7 -1 -15 10 -14 19 -15 19 -36 -4 -50 -53 -64 -306 -24 -430 15 -46
20 -52 44 -52 22 0 29 6 35 28 l7 27 10 -28 c5 -15 14 -25 18 -22 11 7 12 633
1 640 -5 2 -11 2 -15 -2z m-24 -246 c22 -47 24 -218 3 -283 -24 -69 -32 -74
-50 -30 -40 96 -23 346 24 346 4 0 14 -15 23 -33z"/>
<path d="M513 643 c-13 -5 -17 -50 -7 -77 11 -30 31 -6 28 35 -3 46 -4 48 -21
42z"/>
<path d="M1116 639 c-3 -8 -4 -27 -2 -44 3 -42 30 -40 32 2 2 34 -22 67 -30
42z"/>
<path d="M1530 322 c1 -271 3 -319 16 -319 7 0 14 3 14 6 1 3 1 145 2 316 1
283 0 310 -16 313 -15 3 -16 -21 -16 -316z"/>
<path d="M570 546 c0 -47 -4 -65 -12 -63 -8 1 -14 -12 -16 -35 -3 -31 0 -37
12 -32 14 5 16 -14 17 -165 1 -94 2 -174 3 -178 1 -5 6 -23 10 -41 6 -26 12
-32 35 -32 22 0 27 4 26 24 0 13 -10 32 -22 42 -21 18 -23 27 -23 164 -1 202
-2 190 18 190 23 0 25 48 2 55 -10 3 -17 19 -19 43 -6 76 -8 86 -19 90 -8 2
-12 -16 -12 -62z"/>
<path d="M1754 598 c-5 -7 -9 -29 -10 -48 -3 -82 -4 -86 -14 -70 -5 8 -10 13
-11 10 -7 -46 -6 -61 8 -69 14 -7 17 -35 18 -193 2 -199 8 -228 50 -228 22 0
25 4 25 38 0 23 -3 32 -9 24 -6 -10 -12 -7 -24 11 -12 19 -15 56 -16 185 0 89
3 161 7 161 25 -4 32 4 32 37 0 30 -2 34 -14 25 -19 -16 -22 -7 -24 63 -2 64
-5 75 -18 54z"/>
<path d="M2399 596 c-1 -6 -3 -29 -4 -51 -1 -22 -3 -48 -4 -57 0 -10 -6 -17
-13 -15 -10 2 -13 -17 -9 -53 1 -5 7 -7 14 -5 9 4 12 -36 13 -177 2 -195 10
-238 44 -238 17 0 20 6 18 34 -1 19 -5 33 -9 30 -18 -10 -22 29 -24 188 -1
146 1 168 15 165 11 -1 16 9 18 37 3 34 1 38 -11 28 -18 -15 -23 2 -22 74 1
35 -3 51 -12 51 -7 0 -14 -5 -14 -11z"/>
<path d="M1893 488 c-12 -13 -23 -32 -26 -43 -4 -16 -5 -15 -6 6 -1 15 -7 26
-15 26 -12 0 -14 -37 -13 -235 1 -168 5 -236 14 -239 8 -3 12 39 12 154 2 171
13 238 42 254 15 8 19 19 17 54 -2 25 -3 45 -4 45 0 0 -10 -10 -21 -22z"/>
<path d="M1214 493 c3 -3 -2 -12 -12 -19 -22 -15 -41 -94 -44 -186 -5 -111
-14 -68 -13 62 1 83 -3 124 -11 131 -19 16 -21 -9 -20 -251 1 -217 2 -225 21
-228 16 -3 17 -1 5 7 -8 6 -10 11 -5 11 7 0 10 33 10 85 -1 47 3 85 7 85 4 0
8 -15 9 -32 1 -51 9 -89 24 -118 8 -15 11 -30 8 -34 -4 -3 11 -6 32 -6 21 0
35 3 32 7 -4 3 0 14 8 23 15 17 23 45 25 95 2 35 6 27 35 -67 17 -54 20 -58
49 -58 27 0 34 6 47 38 26 60 32 97 16 110 -10 9 -14 9 -14 -1 0 -6 -7 -28
-17 -48 -24 -52 -49 -43 -64 23 -15 64 -15 101 0 116 15 15 28 15 28 1 0 -5
-5 -7 -12 -3 -7 4 -8 3 -4 -5 6 -9 11 -9 23 1 23 19 46 19 39 1 -5 -12 -4 -13
7 -5 8 7 17 9 20 5 4 -3 7 23 7 58 0 75 -23 169 -45 185 -8 6 -12 14 -8 17 12
13 -13 7 -26 -5 -11 -11 -13 -10 -7 2 4 8 -2 4 -13 -10 -21 -25 -41 -80 -41
-112 0 -31 -16 -19 -18 13 -3 40 -28 99 -42 99 -6 0 -9 4 -6 8 2 4 -5 9 -16 9
-11 1 -18 -1 -14 -4z m51 -145 c4 -21 11 -38 16 -38 6 0 7 5 4 10 -3 6 -2 10
4 10 6 0 10 -34 10 -87 -1 -49 -3 -82 -6 -75 -10 26 -22 10 -33 -43 -6 -30
-15 -53 -20 -50 -5 3 -10 -1 -13 -7 -3 -7 -12 4 -21 25 -19 44 -24 230 -7 286
21 68 52 53 66 -31z m129 70 c7 -7 13 -16 14 -21 1 -4 4 -22 8 -41 3 -19 3
-44 -1 -56 -7 -21 -7 -21 -28 -3 -11 10 -17 12 -13 6 4 -8 1 -13 -8 -13 -9 0
-16 6 -16 13 0 8 -4 7 -11 -3 -14 -20 -3 71 13 105 13 28 23 31 42 13z"/>
<path d="M1649 492 c-9 -1 -23 -17 -32 -35 l-16 -32 0 35 c-1 27 -4 31 -13 22
-10 -10 -13 -73 -14 -240 0 -211 3 -241 26 -242 3 0 5 76 5 169 1 172 13 244
42 255 26 10 35 -47 35 -232 0 -170 6 -210 24 -181 12 20 6 388 -7 427 -14 43
-28 59 -50 54z"/>
<path d="M1941 457 c-22 -45 -25 -65 -15 -91 9 -24 24 -19 24 7 0 30 12 47 39
52 27 5 41 -26 41 -92 0 -39 -2 -44 -15 -33 -12 10 -18 10 -32 -1 -14 -12 -16
-12 -9 1 5 8 -3 2 -18 -14 -48 -54 -56 -216 -13 -273 17 -23 55 -15 71 15 13
23 21 19 18 -10 -1 -3 5 -9 14 -12 13 -5 15 20 14 193 -2 225 -10 278 -48 292
-19 7 -27 6 -38 -8 -13 -17 -14 -17 -8 0 12 33 -4 17 -25 -26z m59 -221 c0 6
7 11 16 11 14 0 16 -10 10 -76 -3 -42 -10 -77 -16 -79 -5 -2 -10 -10 -10 -18
0 -9 -4 -12 -10 -9 -5 3 -10 0 -10 -7 -1 -7 -8 0 -17 17 -24 44 -17 165 8 150
5 -4 9 2 9 12 0 15 2 16 10 3 5 -8 10 -10 10 -4z"/>
<path d="M2136 488 c3 -4 1 -8 -4 -8 -5 0 -13 -10 -16 -22 -6 -22 -7 -22 -20
7 -11 27 -13 28 -19 10 -3 -11 -6 -122 -6 -246 0 -192 2 -226 14 -226 13 0 15
25 16 146 1 202 12 271 45 271 27 0 34 -51 34 -236 0 -171 5 -206 26 -172 5 7
3 8 -7 3 -12 -7 -12 -6 -1 7 10 12 13 62 11 198 -2 171 -11 250 -31 250 -4 0
-8 6 -8 14 0 8 -9 14 -19 13 -11 0 -17 -5 -15 -9z"/>
<path d="M2273 482 c-38 -33 -53 -112 -50 -261 4 -163 21 -214 72 -219 27 -3
33 2 47 35 23 55 28 86 18 103 -9 13 -11 13 -20 0 -5 -8 -10 -23 -10 -32 0
-10 -5 -18 -11 -18 -5 0 -8 -4 -5 -9 3 -5 -1 -11 -9 -15 -31 -12 -66 98 -51
160 7 25 8 26 22 8 8 -11 14 -14 13 -9 -3 24 2 27 17 9 8 -10 13 -14 10 -7 -4
6 -2 14 4 18 5 3 10 1 10 -6 0 -8 5 -7 17 2 11 10 14 10 9 2 -4 -8 -2 -13 5
-13 9 0 10 21 6 83 -7 97 -24 155 -53 174 -18 11 -23 11 -41 -5z m47 -72 c6
-11 12 -41 14 -68 4 -43 2 -48 -17 -49 -11 -1 -28 3 -36 10 -12 9 -13 9 -7 0
4 -9 1 -13 -9 -13 -14 0 -16 7 -12 43 7 51 16 77 29 77 5 0 6 5 3 10 -3 6 1
10 9 10 8 0 20 -9 26 -20z"/>
<path d="M202 477 c-19 -22 -11 -397 9 -444 19 -45 55 -45 74 -1 l13 33 4 -29
c1 -16 8 -31 13 -33 12 -4 14 471 3 483 -14 14 -19 -24 -21 -186 -2 -135 -6
-172 -21 -202 -17 -35 -19 -36 -35 -21 -13 14 -17 48 -21 216 -4 169 -7 198
-18 184z"/>
<path d="M509 480 c-1 -8 -2 -115 -3 -238 -1 -205 3 -256 19 -241 11 11 7 471
-5 483 -7 7 -10 6 -11 -4z"/>
</g>
</svg>
